<svg id="active-radio-button" xmlns="http://www.w3.org/2000/svg" width="18.865" height="18.819" viewBox="0 0 18.865 18.819">
  <path id="Path_2909" data-name="Path 2909" d="M327.423,128.454a8.864,8.864,0,1,1-2.606-6.243,8.864,8.864,0,0,1,2.606,6.243Zm0,0" transform="translate(-309.138 -119.045)" fill="#e3e1e1"/>
  <path id="Path_2910" data-name="Path 2910" d="M325.4,151.968a8.913,8.913,0,0,1-15.772-5.609,8.779,8.779,0,0,1,3.187-6.769,8.744,8.744,0,0,0-2.026,5.609,8.913,8.913,0,0,0,14.611,6.769Zm0,0" transform="translate(-309.138 -136.95)" fill="#f0f0f0"/>
  <path id="Path_2911" data-name="Path 2911" d="M352.314,156.361a5.663,5.663,0,1,1-5.663-5.619,5.641,5.641,0,0,1,5.663,5.619Zm0,0" transform="translate(-337.265 -146.951)" fill="red"/>
  <path id="Path_2912" data-name="Path 2912" d="M351.366,167.827a5.671,5.671,0,0,1-10.378-3.11,5.6,5.6,0,0,1,2.5-4.657,5.549,5.549,0,0,0-.948,3.11,5.672,5.672,0,0,0,8.831,4.658Zm0,0" transform="translate(-337.265 -155.307)" fill="#fc3535"/>
  <path id="Path_2913" data-name="Path 2913" d="M314.291,132.819a9.52,9.52,0,0,1-6.171-2.267,9.4,9.4,0,0,1-3.186-5.626.58.58,0,1,1,1.145-.187,8.251,8.251,0,1,0-.02-2.531.58.58,0,0,1-1.149-.168,9.39,9.39,0,0,1,3.154-5.727,9.441,9.441,0,1,1,6.226,16.506Zm0,0" transform="translate(-304.905 -114)" fill="#a3191e"/>
  <path id="Path_2914" data-name="Path 2914" d="M341.606,157.515a6.2,6.2,0,1,1,3.148-11.553.58.58,0,1,1-.583,1,5.031,5.031,0,1,0,2.518,4.351,5,5,0,0,0-.709-2.569.58.58,0,1,1,1-.6,6.156,6.156,0,0,1,.875,3.166,6.228,6.228,0,0,1-6.243,6.2Zm0,0" transform="translate(-332.22 -141.906)" fill="#a3191e"/>
</svg>
