<svg xmlns="http://www.w3.org/2000/svg" width="18.304" height="18.3" viewBox="0 0 18.304 18.3">
  <g id="cart-icon" transform="translate(0.15 0.15)">
    <path id="Path_15" data-name="Path 15" d="M98.388,344.3a1.688,1.688,0,1,0,1.688,1.688h0A1.688,1.688,0,0,0,98.388,344.3Zm0,2.625a.937.937,0,1,1,.937-.937A.938.938,0,0,1,98.388,346.925Z" transform="translate(-92.732 -329.675)" stroke="#000" stroke-width="0.3"/>
    <path id="Path_16" data-name="Path 16" d="M296.888,344.3a1.688,1.688,0,1,0,1.688,1.688h0A1.686,1.686,0,0,0,296.888,344.3Zm0,2.625a.937.937,0,1,1,.937-.937A.938.938,0,0,1,296.888,346.925Z" transform="translate(-282.774 -329.675)" stroke="#000" stroke-width="0.3"/>
    <path id="Path_17" data-name="Path 17" d="M17.579,2.83l-13.591-.2L3.612,1.393A1.937,1.937,0,0,0,1.818,0H.42A.435.435,0,0,0,0,.447.435.435,0,0,0,.416.895h1.4a1.1,1.1,0,0,1,1,.787l2.653,8.606-.208.516a2.306,2.306,0,0,0,.188,1.957,1.9,1.9,0,0,0,1.566.942h8.12a.448.448,0,0,0,0-.895H7.013a1.041,1.041,0,0,1-.875-.538,1.309,1.309,0,0,1-.1-1.079l.168-.4L14.993,9.8a2.359,2.359,0,0,0,1.982-1.888l1-4.516a.411.411,0,0,0-.064-.383A.51.51,0,0,0,17.579,2.83ZM16.16,7.707A1.457,1.457,0,0,1,14.885,8.9L6.2,9.866,4.26,3.527l12.8.2Z" stroke="#000" stroke-width="0.3"/>
  </g>
</svg>
