<svg width="215" height="100" viewBox="0 0 215 63" fill="none" xmlns="http://www.w3.org/2000/svg">
<rect x="1.5" y="1.5" width="212" height="60" rx="30" stroke="#0cb611" stroke-width="3"/>
<path d="M77.2402 43V20.9609H84.7935C87.286 20.9609 89.1831 21.4604 90.4849 22.4595C91.7866 23.4585 92.4375 24.9469 92.4375 26.9248C92.4375 27.9339 92.165 28.8421 91.6201 29.6494C91.0752 30.4567 90.278 31.0824 89.2285 31.5264C90.4193 31.8493 91.3376 32.4598 91.9834 33.3579C92.6393 34.2459 92.9673 35.3156 92.9673 36.5669C92.9673 38.6356 92.3013 40.2249 90.9692 41.335C89.6473 42.445 87.7502 43 85.2778 43H77.2402ZM81.0698 33.0552V39.9424H85.3232C86.5241 39.9424 87.4626 39.6447 88.1387 39.0493C88.8148 38.4539 89.1528 37.6265 89.1528 36.5669C89.1528 34.2762 87.9823 33.1056 85.6411 33.0552H81.0698ZM81.0698 30.2397H84.8237C86.0145 30.2397 86.9429 29.9723 87.6089 29.4375C88.285 28.8926 88.623 28.1257 88.623 27.1367C88.623 26.0469 88.3102 25.2598 87.6846 24.7754C87.069 24.291 86.1053 24.0488 84.7935 24.0488H81.0698V30.2397ZM114.386 32.5557C114.386 34.7152 114.012 36.6123 113.266 38.2471C112.519 39.8717 111.449 41.123 110.057 42.001C108.674 42.8688 107.08 43.3027 105.273 43.3027C103.487 43.3027 101.893 42.8688 100.49 42.001C99.0977 41.123 98.0179 39.8768 97.251 38.2622C96.4941 36.6476 96.1107 34.7858 96.1006 32.6768V31.4355C96.1006 29.2861 96.479 27.389 97.2358 25.7441C98.0028 24.0993 99.0775 22.8429 100.46 21.9751C101.853 21.0972 103.447 20.6582 105.243 20.6582C107.039 20.6582 108.629 21.0921 110.011 21.96C111.404 22.8177 112.479 24.0589 113.235 25.6836C113.992 27.2982 114.376 29.1802 114.386 31.3296V32.5557ZM110.556 31.4053C110.556 28.9632 110.092 27.0913 109.164 25.7896C108.245 24.4878 106.938 23.8369 105.243 23.8369C103.588 23.8369 102.292 24.4878 101.353 25.7896C100.425 27.0812 99.9504 28.9128 99.9302 31.2842V32.5557C99.9302 34.9775 100.399 36.8494 101.338 38.1714C102.286 39.4933 103.598 40.1543 105.273 40.1543C106.969 40.1543 108.271 39.5085 109.179 38.2168C110.097 36.9251 110.556 35.0381 110.556 32.5557V31.4053ZM135.789 32.5557C135.789 34.7152 135.416 36.6123 134.669 38.2471C133.922 39.8717 132.853 41.123 131.46 42.001C130.077 42.8688 128.483 43.3027 126.677 43.3027C124.891 43.3027 123.296 42.8688 121.894 42.001C120.501 41.123 119.421 39.8768 118.654 38.2622C117.897 36.6476 117.514 34.7858 117.504 32.6768V31.4355C117.504 29.2861 117.882 27.389 118.639 25.7441C119.406 24.0993 120.481 22.8429 121.863 21.9751C123.256 21.0972 124.85 20.6582 126.646 20.6582C128.443 20.6582 130.032 21.0921 131.415 21.96C132.807 22.8177 133.882 24.0589 134.639 25.6836C135.396 27.2982 135.779 29.1802 135.789 31.3296V32.5557ZM131.959 31.4053C131.959 28.9632 131.495 27.0913 130.567 25.7896C129.649 24.4878 128.342 23.8369 126.646 23.8369C124.992 23.8369 123.695 24.4878 122.756 25.7896C121.828 27.0812 121.354 28.9128 121.333 31.2842V32.5557C121.333 34.9775 121.803 36.8494 122.741 38.1714C123.69 39.4933 125.002 40.1543 126.677 40.1543C128.372 40.1543 129.674 39.5085 130.582 38.2168C131.5 36.9251 131.959 35.0381 131.959 32.5557V31.4053ZM145.931 33.479L143.433 36.1279V43H139.604V20.9609H143.433V31.2993L145.552 28.6807L152 20.9609H156.632L148.443 30.7241L157.102 43H152.561L145.931 33.479ZM172.042 33.1611H162.99V39.9424H173.57V43H159.16V20.9609H173.464V24.0488H162.99V30.1338H172.042V33.1611ZM176.688 43V20.9609H183.197C185.145 20.9609 186.87 21.3949 188.374 22.2627C189.888 23.1305 191.058 24.3617 191.886 25.9561C192.713 27.5505 193.127 29.377 193.127 31.4355V32.5405C193.127 34.6294 192.708 36.466 191.871 38.0503C191.043 39.6346 189.857 40.8556 188.313 41.7134C186.78 42.5711 185.019 43 183.031 43H176.688ZM180.518 24.0488V39.9424H183.016C185.024 39.9424 186.563 39.3167 187.632 38.0654C188.712 36.804 189.262 34.9977 189.282 32.6465V31.4204C189.282 29.0288 188.763 27.2023 187.723 25.9409C186.684 24.6795 185.175 24.0488 183.197 24.0488H180.518Z" fill="#0cb611"/>
<circle cx="31" cy="31" r="29" fill="#0cb611"/>
<circle cx="31" cy="31" r="29" stroke="#0cb611"/>
<path d="M16 28.6809L24.4583 40L45 21" stroke="white" stroke-width="5" stroke-linecap="round" stroke-linejoin="round"/>
</svg>
