<svg id="business-processes" xmlns="http://www.w3.org/2000/svg" width="65.607" height="68.289" viewBox="0 0 65.607 68.289">
  <path id="Path_4542" data-name="Path 4542" d="M-478.32,375.151h18.791c1.369,0,1.689.313,1.689,1.653q0,8.605,0,17.21c0,1.293-.335,1.621-1.651,1.621H-499.45c-1.3,0-1.627-.332-1.627-1.645q0-17.708,0-35.416c0-1.306.328-1.633,1.637-1.633h19.482c1.307,0,1.638.33,1.638,1.634q0,7.858,0,15.717Zm-20.446-.05h18.112V359.26h-4.493c0,1.838.006,3.635,0,5.432,0,.93-.421,1.348-1.347,1.352q-3.2.013-6.4,0c-.93,0-1.345-.419-1.351-1.346-.009-1.588,0-3.176,0-4.765,0-.227-.02-.454-.031-.68h-4.484Zm18.125,18.245V377.481h-4.506c0,1.807,0,3.559,0,5.312,0,1.071-.389,1.459-1.454,1.461q-2.986.007-5.972,0c-1.358,0-1.674-.315-1.675-1.668,0-1.7,0-3.4,0-5.114h-4.5v15.872Zm20.475-.019V377.462h-4.5v.725c0,1.588.008,3.176,0,4.765a1.144,1.144,0,0,1-1.255,1.3q-3.306.021-6.612,0A1.128,1.128,0,0,1-473.764,383c-.017-.971,0-1.944,0-2.915q0-1.3,0-2.6h-4.516v15.847Zm-27.292-34.067h-4.468v4.457h4.468Zm-4.465,18.2v4.464h4.462v-4.464Zm24.94,4.486v-4.469h-4.456v4.469Z" transform="translate(501.077 -327.348)" fill="#a3191e"/>
  <path id="Path_4543" data-name="Path 4543" d="M-387.449,208.239v1.182a.548.548,0,0,0,.548.547h4.5c1.453,0,1.744.291,1.745,1.741q0,8.925,0,17.851v.29a.547.547,0,0,1-.547.547h-1.163a.547.547,0,0,1-.547-.547V212.831a.547.547,0,0,0-.547-.547h-26.2a.547.547,0,0,0-.547.547v14.75a.547.547,0,0,1-.547.547h-1.213a.55.55,0,0,1-.548-.534c0-.054,0-.108,0-.162q0-7.93,0-15.859c0-1.264.338-1.6,1.594-1.6,1.528,0,3.057,0,4.626,0a.548.548,0,0,0,.549-.547v-1.2a.523.523,0,0,0-.521-.523h0c-2.015,0-4.029-.007-6.044,0a2.292,2.292,0,0,0-2.478,2.482q-.007,8.534,0,17.068v.34a.547.547,0,0,1-.547.547h-1.182a.547.547,0,0,1-.547-.547v-.162q0-8.57,0-17.139a4.563,4.563,0,0,1,4.906-4.867q4.906,0,9.812,0h.178a.547.547,0,0,0,.531-.677c-.187-.766-.367-1.5-.543-2.244-.243-1.02.211-1.625,1.253-1.628q4.337-.014,8.675,0c1.046,0,1.506.606,1.264,1.62-.175.734-.357,1.467-.55,2.25a.548.548,0,0,0,.531.679h.1q4.977,0,9.955,0a4.558,4.558,0,0,1,4.844,4.859q.006,9.139,0,18.277v.18a.547.547,0,0,1-.547.547h-1.182a.547.547,0,0,1-.547-.547v-.271q0-9.032,0-18.064c0-1.843-.856-2.7-2.686-2.705H-386.9A.548.548,0,0,0-387.449,208.239Zm-15.378,1.68h12.468a.547.547,0,0,0,.547-.547v-1.132a.547.547,0,0,0-.549-.547c-.9,0-1.768.008-2.635,0a1.16,1.16,0,0,1-1.225-1.6c.177-.743.361-1.485.549-2.246a.547.547,0,0,0-.531-.679H-399.6a1.129,1.129,0,0,0,0,.233c.19.782.384,1.562.576,2.343.354,1.439-.037,1.946-1.5,1.948h-2.307a.548.548,0,0,0-.548.547v1.132A.547.547,0,0,0-402.828,209.918Z" transform="translate(432.992 -200.86)" fill="#a3191e"/>
  <path id="Path_4544" data-name="Path 4544" d="M-331.409,365.018a.488.488,0,0,0-.627-.478c-1.707.506-3.316.982-4.924,1.463q-9.176,2.748-18.348,5.508a4.444,4.444,0,0,1-2.3.155c-1.318-.284-2.665-.437-3.976-.744a1.542,1.542,0,0,1-1.015-.8,1.506,1.506,0,0,1,.384-1.233c1.107-1.136,2.286-2.2,3.46-3.27a2.279,2.279,0,0,1,.856-.472q14.984-4.5,29.974-8.978a3.4,3.4,0,0,1,3.721.873,3.254,3.254,0,0,1,.733,3.432,3.3,3.3,0,0,1-2.268,2.175q-1.488.472-2.992.891a.525.525,0,0,0-.463.644c.074,1.016.093,2.035.151,3.053a1.211,1.211,0,0,1-.838,1.4c-2.717.828-5.441,1.635-8.218,2.464a.489.489,0,0,1-.608-.325l-.375-1.232a.48.48,0,0,1,.3-.6h0c2.242-.675,4.481-1.362,6.732-2,.533-.152.724-.389.657-.942A6.746,6.746,0,0,1-331.409,365.018Zm-.364-5.318-17.656,5.292a.489.489,0,0,0-.327.61l.374,1.233a.489.489,0,0,0,.586.332c.1-.025.2-.05.291-.078q7.506-2.25,15.011-4.5c2.036-.612,2.035-.617,1.8-2.738A.825.825,0,0,0-331.773,359.7Zm-20.171,6.556a.488.488,0,0,0-.609-.327c-1.251.384-2.43.788-3.638,1.054a4.681,4.681,0,0,0-2.26,1.465.489.489,0,0,0,.222.825,3.719,3.719,0,0,0,1.6.177c1.59-.33,3.138-.863,4.728-1.349a.489.489,0,0,0,.326-.609Zm22.6-5.529a.49.49,0,0,0,.629.441c.839-.252,1.611-.476,2.371-.737a1.1,1.1,0,0,0,.737-1.414,1.1,1.1,0,0,0-1.359-.732c-.7.17-1.391.392-2.105.609a.489.489,0,0,0-.347.495C-329.392,359.83-329.367,360.265-329.342,360.726Z" transform="translate(388.874 -326.553)" fill="#a3191e"/>
  <path id="Path_4545" data-name="Path 4545" d="M-251.067,441.151h.988a.644.644,0,0,1,.644.644v.006c0,3.1.005,6.2,0,9.307a4.56,4.56,0,0,1-4.822,4.8c-1.941,0-3.883,0-5.86,0a.645.645,0,0,1-.645-.644v-.989a.644.644,0,0,1,.644-.644h.969c1.634,0,3.268,0,4.9,0a2.308,2.308,0,0,0,2.537-2.565q.006-4.547,0-9.094V441.8A.644.644,0,0,1-251.067,441.151Z" transform="translate(306.327 -395.592)" fill="#a3191e"/>
  <path id="Path_4546" data-name="Path 4546" d="M-369.067,276.3c0-.735-.015-1.47,0-2.2a1.115,1.115,0,0,1,1.195-1.21q2.2-.03,4.408,0a1.111,1.111,0,0,1,1.211,1.194q.031,2.2,0,4.409a1.113,1.113,0,0,1-1.195,1.211q-2.2.031-4.408,0a1.133,1.133,0,0,1-1.213-1.266C-369.079,277.721-369.067,277.01-369.067,276.3Zm2.324-1.113v2.188h2.19v-2.188Z" transform="translate(394.1 -259.217)" fill="#a3191e"/>
  <path id="Path_4547" data-name="Path 4547" d="M-362.245,330.343c0,.688.009,1.375,0,2.062-.014.891-.425,1.318-1.3,1.326q-2.1.02-4.2,0a1.158,1.158,0,0,1-1.324-1.3q-.019-2.1,0-4.2a1.157,1.157,0,0,1,1.3-1.325q2.1-.019,4.2,0c.917.007,1.317.428,1.328,1.371C-362.238,328.968-362.245,329.656-362.245,330.343Zm-4.507-1.147v2.213h2.175V329.2Z" transform="translate(394.104 -303.004)" fill="#a3191e"/>
  <rect id="Rectangle_1104" data-name="Rectangle 1104" width="13.55" height="2.214" rx="1.107" transform="translate(34.193 18.238)" fill="#a3191e"/>
  <rect id="Rectangle_1105" data-name="Rectangle 1105" width="13.564" height="2.193" rx="1.096" transform="translate(34.169 28.492)" fill="#a3191e"/>
  <path id="Path_4548" data-name="Path 4548" d="M-255.221,447.15h.067a1.117,1.117,0,0,1,1.117,1.117c0,1.012,0,2.011,0,3.01,0,1.23.01,2.461,0,3.691-.009.712-.384,1.219-1.016,1.231-1.544.03-3.09.02-4.655.015a1.117,1.117,0,0,1-1.113-1.117h0a1.117,1.117,0,0,1,1.117-1.117h2.256a1.117,1.117,0,0,0,1.117-1.117v-4.6A1.117,1.117,0,0,1-255.221,447.15Z" transform="translate(306.379 -400.454)" fill="#a3191e"/>
  <rect id="Rectangle_1106" data-name="Rectangle 1106" width="9.013" height="2.188" rx="1.094" transform="translate(38.718 13.699)" fill="#a3191e"/>
  <rect id="Rectangle_1107" data-name="Rectangle 1107" width="9.013" height="2.189" rx="1.094" transform="translate(38.744 23.953)" fill="#a3191e"/>
  <path id="Path_4549" data-name="Path 4549" d="M-318.655,275.389h-2.19V273.2h2.19Z" transform="translate(355.016 -259.485)" fill="#a3191e"/>
  <rect id="Rectangle_1108" data-name="Rectangle 1108" width="2.188" height="2.201" rx="1.094" transform="translate(34.173 23.935)" fill="#a3191e"/>
  <rect id="Rectangle_1109" data-name="Rectangle 1109" width="2.178" height="2.213" rx="1.089" transform="translate(15.972 43.287)" fill="#a3191e"/>
  <rect id="Rectangle_1110" data-name="Rectangle 1110" width="2.193" height="2.188" rx="1.094" transform="translate(15.965 61.513)" fill="#a3191e"/>
  <rect id="Rectangle_1111" data-name="Rectangle 1111" width="2.182" height="2.213" rx="1.091" transform="translate(36.464 61.488)" fill="#a3191e"/>
</svg>
