<svg id="cart-icon" xmlns="http://www.w3.org/2000/svg" width="20.982" height="20" viewBox="0 0 20.982 20">
  <path id="Path_395" data-name="Path 395" d="M323.446,366.1a1.934,1.934,0,1,0,1.934,1.934h0A1.957,1.957,0,0,0,323.446,366.1Z" transform="translate(-306.475 -349.972)" fill="#404040"/>
  <path id="Path_396" data-name="Path 396" d="M49.372,41.62c-.047,0-.118-.026-.188-.026H34.343l-.236-1.713a2.174,2.174,0,0,0-2.1-1.969H30.1a1.026,1.026,0,0,0,0,2.046H32.01a.259.259,0,0,1,.236.23l1.461,10.79a2.66,2.66,0,0,0,2.544,2.378h9.8a2.68,2.68,0,0,0,2.544-2.25l1.531-8.31A1.008,1.008,0,0,0,49.372,41.62Z" transform="translate(-29.16 -37.912)" fill="#404040"/>
  <path id="Path_397" data-name="Path 397" d="M142.091,366.1a1.945,1.945,0,0,0-1.86,2.008,1.906,1.906,0,0,0,1.9,1.841h.037a1.926,1.926,0,0,0-.074-3.849Z" transform="translate(-134.802 -349.972)" fill="#404040"/>
</svg>
