<svg xmlns="http://www.w3.org/2000/svg" width="66.331" height="63.103" viewBox="0 0 66.331 63.103">
  <g id="gst" transform="translate(0.252 0.25)">
    <path id="Path_4523" data-name="Path 4523" d="M-934.333,240.16c-.1.768-.233,1.479-.286,2.2A22.964,22.964,0,0,0-931.3,256.44a23.173,23.173,0,0,0,14.752,10.712,22.294,22.294,0,0,0,5.166.6c.353,0,.711.073.815.44a1.3,1.3,0,0,1-.065.8c-.144.342-.511.35-.832.327-1.272-.092-2.554-.124-3.811-.318a23.162,23.162,0,0,1-7.485-2.477,24.8,24.8,0,0,1-12.89-16.667,23.046,23.046,0,0,1-.537-7.562c.1-1.134.326-2.259.515-3.384a.784.784,0,0,1,1.117-.6c.349.137.686.305,1.036.442a.811.811,0,0,0,1.139-.918c-.155-1.338-.279-2.679-.421-4.019-.135-1.282-.277-2.564-.412-3.846-.044-.418-.076-.837-.11-1.256a.879.879,0,0,0-.469-.824.877.877,0,0,0-.931.147q-3.749,2.717-7.506,5.422a.784.784,0,0,0,.143,1.459c.521.251,1.055.474,1.578.721a.774.774,0,0,1,.494,1.083,29.6,29.6,0,0,0-.968,8.606,29.4,29.4,0,0,0,5.715,16.511,29.539,29.539,0,0,0,12.455,9.878,28.5,28.5,0,0,0,7.012,1.991,27.368,27.368,0,0,0,7.2.207c.89-.1,1.777-.231,2.665-.353a.809.809,0,0,1,.979.632.766.766,0,0,1-.692.927,54.44,54.44,0,0,1-5.447.5,30.637,30.637,0,0,1-19.448-6.651,30.779,30.779,0,0,1-11.023-16.8,30.1,30.1,0,0,1-.945-9.6,32.349,32.349,0,0,1,.778-5.4c.057-.243.01-.375-.235-.464a8.854,8.854,0,0,1-.87-.39,2.348,2.348,0,0,1-.336-4.115c2.482-1.789,4.978-3.559,7.428-5.391a2.417,2.417,0,0,1,3.968,1.543c.092.645.131,1.3.2,1.947.14,1.354.284,2.708.422,4.062.124,1.211.281,2.42.353,3.634a2.359,2.359,0,0,1-3.045,2.329C-933.985,240.274-934.12,240.229-934.333,240.16Z" transform="translate(944.239 -213.013)" fill="#a3191e" stroke="#a3191e" stroke-width="0.5"/>
    <path id="Path_4524" data-name="Path 4524" d="M-605.2,109.7c.079-.64.192-1.279.233-1.924a23.188,23.188,0,0,0-4.552-15.8,23.125,23.125,0,0,0-11.547-8.335,21.007,21.007,0,0,0-5.994-1.1c-.45-.014-.9-.054-1.349-.076a.7.7,0,0,1-.7-.645.7.7,0,0,1,.466-.834,1.655,1.655,0,0,1,.6-.086,24.785,24.785,0,0,1,15.18,5.377,24.7,24.7,0,0,1,8.736,13.334,25.409,25.409,0,0,1,.739,8.191c-.064,1.021-.279,2.032-.417,3.049a.834.834,0,0,1-1.289.692,7.491,7.491,0,0,0-1.148-.509.794.794,0,0,0-1.135.88c.223,2.132.455,4.264.681,6.4.095.894.2,1.787.263,2.683a.953.953,0,0,0,.5.932c.39.181.689-.017.993-.238q3.451-2.5,6.908-5a6.493,6.493,0,0,0,.658-.495.738.738,0,0,0-.184-1.258c-.452-.225-.92-.419-1.381-.628a.863.863,0,0,1-.56-1.155,27.9,27.9,0,0,0,.9-7.523,29.272,29.272,0,0,0-6.429-18.145,29.311,29.311,0,0,0-16-10.383,30.02,30.02,0,0,0-5.605-.857,28.625,28.625,0,0,0-6.587.356.832.832,0,0,1-1.05-.651.787.787,0,0,1,.813-.911c1.643-.154,3.287-.41,4.932-.417a30.484,30.484,0,0,1,17.811,5.434,30.905,30.905,0,0,1,12.755,18.3,30.648,30.648,0,0,1,.935,7.307,29.535,29.535,0,0,1-.735,6.946c-.077.335-.035.53.321.658a2.617,2.617,0,0,1,1.684,1.4,2.272,2.272,0,0,1-.719,2.832c-1.736,1.286-3.5,2.539-5.247,3.8-.8.577-1.6,1.15-2.4,1.73a2.346,2.346,0,0,1-2.57.28,2.389,2.389,0,0,1-1.324-2.135c-.115-1.3-.277-2.592-.41-3.889-.129-1.254-.245-2.51-.369-3.765-.044-.447-.084-.895-.146-1.339a2.35,2.35,0,0,1,.889-2.316,2.258,2.258,0,0,1,2.375-.3q.161.065.325.124A.851.851,0,0,0-605.2,109.7Z" transform="translate(661.324 -74.623)" fill="#a3191e" stroke="#a3191e" stroke-width="0.5"/>
    <path id="Path_4525" data-name="Path 4525" d="M-726.423,274.96h3.84v.46c0,1.236-.019,2.473.011,3.708a.771.771,0,0,1-.443.755,6.874,6.874,0,0,1-4.214.908,5.727,5.727,0,0,1-4.489-2.373,5.876,5.876,0,0,1-1.021-3.948,5.757,5.757,0,0,1,1.469-3.628,5.416,5.416,0,0,1,3.6-1.726,6.544,6.544,0,0,1,4.082.728l.038.021c1.025.58,1.037.628.4,1.588a.647.647,0,0,1-.962.251,7.972,7.972,0,0,0-1.789-.721c-2.548-.443-4.39.864-4.633,3.408a5.04,5.04,0,0,0,.411,2.708,3.712,3.712,0,0,0,4.121,1.979c1.5-.238,1.495-.292,1.49-1.792,0-.869.121-.756-.763-.762-1.183-.008-1.158.138-1.146-1.162C-726.422,275.236-726.423,275.109-726.423,274.96Z" transform="translate(751.212 -252.095)" fill="#a3191e" stroke="#a3191e" stroke-width="0.5"/>
    <path id="Path_4526" data-name="Path 4526" d="M-641.732,435.926a2.427,2.427,0,0,1-.32.575q-4.343,4.38-8.7,8.742-3.806,3.811-7.619,7.615a1.04,1.04,0,0,1-1.506.09,1.047,1.047,0,0,1,.033-1.577q2.921-2.936,5.852-5.863,4.054-4.054,8.112-8.1c.7-.7,1.383-1.4,2.087-2.088a1.923,1.923,0,0,1,.625-.455A1.089,1.089,0,0,1-641.732,435.926Z" transform="translate(685.009 -403.361)" fill="#a3191e" stroke="#a3191e" stroke-width="0.5"/>
    <path id="Path_4527" data-name="Path 4527" d="M-598.52,280.665a5.4,5.4,0,0,1-3.445-1.243.371.371,0,0,1-.1-.581c.632-.948.611-1.352,1.875-.473a3.011,3.011,0,0,0,2.649.423,1.4,1.4,0,0,0,1.046-1.256,1.289,1.289,0,0,0-.794-1.486c-.594-.254-1.22-.435-1.831-.65a3.711,3.711,0,0,1-2.2-1.439,3.279,3.279,0,0,1,2.2-4.914,4.86,4.86,0,0,1,4.2.857.322.322,0,0,1,.112.5c-.647,1.239-.633,1.323-1.793.614a2.7,2.7,0,0,0-2.183-.237,1.3,1.3,0,0,0-1,1.227,1.141,1.141,0,0,0,.732,1.177c.547.252,1.128.432,1.694.643.338.126.682.238,1.013.379,1.914.814,2.257,2.564,1.561,4.308C-595.336,279.9-596.663,280.643-598.52,280.665Z" transform="translate(632.015 -251.943)" fill="#a3191e" stroke="#a3191e" stroke-width="0.5"/>
    <path id="Path_4528" data-name="Path 4528" d="M-656.891,442.115a4.226,4.226,0,0,1-4.266-4.274,4.323,4.323,0,0,1,4.268-4.27,4.3,4.3,0,0,1,4.281,4.334A4.231,4.231,0,0,1-656.891,442.115Zm.033-6.381a2.126,2.126,0,0,0-2.162,2.092,2.164,2.164,0,0,0,2.132,2.184,2.173,2.173,0,0,0,2.148-2.132A2.136,2.136,0,0,0-656.858,435.734Z" transform="translate(685.861 -402.246)" fill="#a3191e" stroke="#a3191e" stroke-width="0.5"/>
    <path id="Path_4529" data-name="Path 4529" d="M-537.913,561.321a4.254,4.254,0,0,1-4.265-4.284A4.3,4.3,0,0,1-537.9,552.8a4.3,4.3,0,0,1,4.269,4.295A4.249,4.249,0,0,1-537.913,561.321Zm.007-2.1a2.17,2.17,0,0,0,2.17-2.15,2.176,2.176,0,0,0-2.168-2.156,2.174,2.174,0,0,0-2.168,2.153A2.17,2.17,0,0,0-537.906,559.222Z" transform="translate(577.264 -511.074)" fill="#a3191e" stroke="#a3191e" stroke-width="0.5"/>
    <path id="Path_4530" data-name="Path 4530" d="M-504.041,272.037V270.28h.449c2.7,0,5.41.01,8.114-.01.421,0,.529.133.5.521s-.006.782-.006,1.236h-3.479v9.749h-2.127c-.01-.166-.029-.333-.029-.5,0-2.908-.009-5.817.01-8.725,0-.432-.134-.534-.541-.522C-502.105,272.056-503.062,272.037-504.041,272.037Z" transform="translate(542.455 -253.195)" fill="#a3191e" stroke="#a3191e" stroke-width="0.5"/>
    <path id="Path_4531" data-name="Path 4531" d="M-480.57,749.555c-.536.012-.842-.24-.905-.645a.767.767,0,0,1,.594-.917q1.454-.484,2.907-.972c.218-.074.427-.176.644-.254a.755.755,0,0,1,1.023.443.735.735,0,0,1-.422,1c-.841.336-1.695.643-2.549.946C-479.74,749.314-480.212,749.444-480.57,749.555Z" transform="translate(521.871 -688.054)" fill="#a3191e" stroke="#a3191e" stroke-width="0.5"/>
    <path id="Path_4532" data-name="Path 4532" d="M-704.516,89.041a.768.768,0,0,1-.819-.6.691.691,0,0,1,.4-.871c1.218-.439,2.448-.845,3.685-1.227.359-.111.778.269.859.688a.809.809,0,0,1-.62.87q-1.62.534-3.238,1.071C-704.354,89.006-704.466,89.028-704.516,89.041Z" transform="translate(726.21 -85.3)" fill="#a3191e" stroke="#a3191e" stroke-width="0.5"/>
    <path id="Path_4533" data-name="Path 4533" d="M-767.144,115.319a.752.752,0,0,1,.8.507.691.691,0,0,1-.259.884q-1.435.9-2.9,1.746a.748.748,0,0,1-.985-.279.77.77,0,0,1,.142-1.022c.977-.616,1.978-1.194,2.973-1.78A.64.64,0,0,1-767.144,115.319Z" transform="translate(785.767 -111.767)" fill="#a3191e" stroke="#a3191e" stroke-width="0.5"/>
    <path id="Path_4534" data-name="Path 4534" d="M-401.968,715.089c-.174.248-.268.5-.448.616q-1.134.753-2.314,1.437a.737.737,0,0,1-1.053-.271.764.764,0,0,1,.3-1.106c.723-.449,1.45-.891,2.174-1.339a.7.7,0,0,1,.851-.017A3.385,3.385,0,0,1-401.968,715.089Z" transform="translate(452.885 -658.451)" fill="#a3191e" stroke="#a3191e" stroke-width="0.5"/>
  </g>
</svg>
