<svg id="homebyz-logo01" xmlns="http://www.w3.org/2000/svg" width="239" height="200.559" viewBox="0 0 239 200.559">
  <text id="empowering_homepreneurs" data-name="empowering homepreneurs" transform="translate(0 196.559)" fill="#a3191e" font-size="16.641" font-family="Montserrat-Medium, Montserrat" font-weight="500"><tspan x="0" y="0">empowering homepreneurs</tspan></text>
  <g id="Group_5429" data-name="Group 5429" transform="translate(-755.322 -275.9)">
    <path id="Path_4562" data-name="Path 4562" d="M793.711,423.376q2.707,2.619,2.707,7.766v13.58h-5.547V431.853a6.65,6.65,0,0,0-1.465-4.682,5.414,5.414,0,0,0-4.171-1.576,6.406,6.406,0,0,0-4.837,1.842,7.338,7.338,0,0,0-1.775,5.3v11.982h-5.547V411.794h5.547v11.982a9.015,9.015,0,0,1,3.4-2.241,12.472,12.472,0,0,1,4.5-.776A9.9,9.9,0,0,1,793.711,423.376Z" fill="#a3191e"/>
    <path id="Path_4563" data-name="Path 4563" d="M825.374,426.616a11.363,11.363,0,0,0-4.423-4.257l-2.032,4.694c.167.142.329.29.486.45a8.219,8.219,0,0,1,0,10.74,6.775,6.775,0,0,1-5.059,2.041,8.244,8.244,0,0,1-1.117-.081l-1.953,4.513a14.758,14.758,0,0,0,3.07.317,13.531,13.531,0,0,0,6.523-1.554,11.319,11.319,0,0,0,4.505-4.327,12.936,12.936,0,0,0,0-12.536Z" fill="#a3191e"/>
    <path id="Path_4564" data-name="Path 4564" d="M809.309,438.243a8.291,8.291,0,0,1,0-10.74,6.708,6.708,0,0,1,5.037-2.041,8.1,8.1,0,0,1,1.38.117l1.93-4.461a14.939,14.939,0,0,0-3.31-.359,13.462,13.462,0,0,0-6.479,1.552,11.372,11.372,0,0,0-4.5,4.3,12.936,12.936,0,0,0,0,12.536,11.31,11.31,0,0,0,4.5,4.327c.03.016.062.03.092.046l2.025-4.679A6.917,6.917,0,0,1,809.309,438.243Z" fill="#a3191e"/>
    <path id="Path_4565" data-name="Path 4565" d="M869.329,423.354q2.617,2.6,2.618,7.788v13.58H866.4V431.853a6.939,6.939,0,0,0-1.376-4.682,4.964,4.964,0,0,0-3.95-1.576,5.79,5.79,0,0,0-4.482,1.842,7.516,7.516,0,0,0-1.686,5.259v12.026h-5.547V431.853a6.939,6.939,0,0,0-1.376-4.682,4.963,4.963,0,0,0-3.949-1.576,5.8,5.8,0,0,0-4.5,1.82,7.56,7.56,0,0,0-1.665,5.281v12.026h-5.547v-23.7H837.6v3.017a8.627,8.627,0,0,1,3.328-2.44,11.3,11.3,0,0,1,4.438-.843,10.713,10.713,0,0,1,4.726,1,7.672,7.672,0,0,1,3.262,2.951,9.872,9.872,0,0,1,3.772-2.907,12.266,12.266,0,0,1,5.1-1.042A9.647,9.647,0,0,1,869.329,423.354Z" fill="#a3191e"/>
    <path id="Path_4566" data-name="Path 4566" d="M901.456,434.648H882.863a6.442,6.442,0,0,0,2.551,4.149,8.363,8.363,0,0,0,5.126,1.532,8.64,8.64,0,0,0,6.435-2.574l2.973,3.417a10.013,10.013,0,0,1-4.039,2.884,15.993,15.993,0,0,1-12.381-.577,11.18,11.18,0,0,1-4.593-4.327,12.211,12.211,0,0,1-1.619-6.279,12.394,12.394,0,0,1,1.575-6.235,11.183,11.183,0,0,1,4.371-4.327,12.769,12.769,0,0,1,6.3-1.552,12.428,12.428,0,0,1,6.19,1.531,10.845,10.845,0,0,1,4.261,4.3,13.061,13.061,0,0,1,1.53,6.412Q901.545,433.583,901.456,434.648Zm-16.4-7.877a6.622,6.622,0,0,0-2.241,4.194h13.446a6.542,6.542,0,0,0-2.175-4.171,6.609,6.609,0,0,0-4.526-1.6A6.7,6.7,0,0,0,885.06,426.771Z" fill="#a3191e"/>
    <path id="Path_4567" data-name="Path 4567" d="M926.2,422.267a10.889,10.889,0,0,1,4.282,4.26,13.787,13.787,0,0,1,0,12.714,10.849,10.849,0,0,1-4.282,4.283,12.591,12.591,0,0,1-6.191,1.509,11.463,11.463,0,0,1-4.46-.844,8.582,8.582,0,0,1-3.4-2.529v3.062H906.87V411.794h5.547v12.115a9.33,9.33,0,0,1,3.351-2.352,10.989,10.989,0,0,1,4.238-.8A12.59,12.59,0,0,1,926.2,422.267Zm-1.775,15.976a8.288,8.288,0,0,0,0-10.74,6.71,6.71,0,0,0-5.037-2.041,7.139,7.139,0,0,0-3.6.91,6.577,6.577,0,0,0-2.529,2.6,8.647,8.647,0,0,0,0,7.81,6.563,6.563,0,0,0,2.529,2.6,7.129,7.129,0,0,0,3.6.91A6.706,6.706,0,0,0,924.422,438.243Z" fill="#a3191e"/>
    <path id="Path_4568" data-name="Path 4568" d="M958.836,421.025,947.741,446.63a11.915,11.915,0,0,1-3.772,5.436,9.034,9.034,0,0,1-5.369,1.575,11.036,11.036,0,0,1-3.506-.576,7.747,7.747,0,0,1-2.84-1.6l2.218-4.082a6.055,6.055,0,0,0,1.887,1.2,5.776,5.776,0,0,0,2.2.443,3.787,3.787,0,0,0,2.419-.754,6.675,6.675,0,0,0,1.753-2.53l.4-.932-10.34-23.785h5.769l7.456,17.529,7.5-17.529Z" fill="#a3191e"/>
    <path id="Path_4569" data-name="Path 4569" d="M980.358,440.284v4.438H959.9v-3.506l13-15.754H960.166v-4.437H980v3.505l-13.047,15.754Z" fill="#a3191e"/>
  </g>
  <g id="Group_5432" data-name="Group 5432" transform="translate(-755.322 -275.9)">
    <g id="Group_5431" data-name="Group 5431">
      <g id="Group_5430" data-name="Group 5430">
        <path id="Path_4570" data-name="Path 4570" d="M870.1,395.786q-1.288-.128-2.578-.255a45.4,45.4,0,0,1-29.271-14.3,63.28,63.28,0,0,1-6.685-8.5.861.861,0,0,1-.142-.663,44.4,44.4,0,0,1,4.313-8.52c.5.957.966,1.88,1.45,2.8a38.9,38.9,0,0,0,28.824,21.209,43.4,43.4,0,0,0,9.355.509,40.588,40.588,0,0,0,10.641-2.363,33.319,33.319,0,0,0,7.258-3.488,5.737,5.737,0,0,1,4.742-.881c2.255.52,4.593.685,6.894,1.006.2.028.392.077.749.149-.888.752-1.653,1.425-2.445,2.067a48.311,48.311,0,0,1-19.525,9.916,46.384,46.384,0,0,1-8.384,1.194,7.388,7.388,0,0,0-.8.121Z" fill="#a3191e" stroke="#fff" stroke-miterlimit="10" stroke-width="1"/>
        <path id="Path_4571" data-name="Path 4571" d="M871.747,286.009c1.343,1.126,2.734,2.2,4.021,3.388a52.592,52.592,0,0,1,14.9,23.224,55.45,55.45,0,0,1,2.575,11.788,82.466,82.466,0,0,1,.067,11.309l-6.825-2.009c-1.163-.342-1.149-.343-1.167-1.532-.034-2.307.076-4.63-.173-6.914a69.558,69.558,0,0,0-1.342-7.1,41.7,41.7,0,0,0-7.593-16.138c-1.185-1.593-2.492-3.1-3.74-4.641a4.225,4.225,0,0,1-.257-.431c-.721.856-1.362,1.562-1.937,2.319a2.592,2.592,0,0,1-1.651,1q-4.59.9-9.181,1.785a1.43,1.43,0,0,1-.3-.07,55.361,55.361,0,0,1,12.467-15.974Z" fill="#a3191e" stroke="#fff" stroke-miterlimit="10" stroke-width="1"/>
        <path id="Path_4572" data-name="Path 4572" d="M927.737,377.535c-3.984,1.359-7.955,2.8-12.167,3.275a69.014,69.014,0,0,1-12.662.168,47.631,47.631,0,0,1-13.654-2.892,58,58,0,0,1-12.336-6.28c-.316-.217-.614-.46-.985-.741.851-.885,1.641-1.729,2.456-2.549.918-.924,1.867-1.817,2.785-2.741a.8.8,0,0,1,1.181-.106,47.352,47.352,0,0,0,12.428,5.577,45.7,45.7,0,0,0,15.076,1.854c2.658-.133,5.3-.55,8.032-.848-.425-1.112-.815-2.079-1.158-3.062a1.436,1.436,0,0,1-.032-.845c1.012-3.161,2.049-6.315,3.081-9.469.042-.129.1-.252.2-.5.222.336.408.6.578.875a59.467,59.467,0,0,1,7.047,17.837,2.018,2.018,0,0,0,.128.306Z" fill="#a3191e" stroke="#fff" stroke-miterlimit="10" stroke-width="1"/>
        <path id="Path_4573" data-name="Path 4573" d="M826.229,359.25a54.051,54.051,0,0,1-1.05-13.7,45.425,45.425,0,0,1,5.249-18.738,47.5,47.5,0,0,1,19.1-19.576,48.941,48.941,0,0,1,15.394-5.418,45.869,45.869,0,0,1,9.15-.568.929.929,0,0,1,.628.289,41.379,41.379,0,0,1,4.759,7.576,4.817,4.817,0,0,1,.182.531c-1-.111-1.927-.189-2.847-.321a37.49,37.49,0,0,0-10.913.255,36.983,36.983,0,0,0-17.609,7.807A40.347,40.347,0,0,0,834,339.063a36.372,36.372,0,0,0-1.213,10.776,2.3,2.3,0,0,1-.539,1.611c-1.836,2.333-3.614,4.711-5.415,7.071C826.675,358.733,826.5,358.931,826.229,359.25Z" fill="#a3191e" stroke="#fff" stroke-miterlimit="10" stroke-width="1"/>
        <path id="Path_4574" data-name="Path 4574" d="M904.333,372.119c.16-.284.277-.52.419-.741a46.58,46.58,0,0,0,5.135-9.868,39.585,39.585,0,0,0,2.1-15.55,38.317,38.317,0,0,0-8.368-21.8,57.254,57.254,0,0,0-6.567-6.5c-1.274-1.164-2.765-2.089-4.147-3.137a1.577,1.577,0,0,1-.558-.645,68.632,68.632,0,0,0-3.94-9.521,2.072,2.072,0,0,1-.061-.377c1.192.479,2.294.88,3.361,1.358a44.047,44.047,0,0,1,14.306,9.7,48.389,48.389,0,0,1,12.819,24.434,49.513,49.513,0,0,1,.929,12.875A46.493,46.493,0,0,1,917.1,364.6a31.65,31.65,0,0,1-3.139,6.813,1.036,1.036,0,0,1-.923.564c-2.787.062-5.574.141-8.361.21A1.993,1.993,0,0,1,904.333,372.119Z" fill="#a3191e" stroke="#fff" stroke-miterlimit="10" stroke-width="1"/>
        <path id="Path_4575" data-name="Path 4575" d="M829.47,374.977c.764.174,1.5.3,2.205.521a2.178,2.178,0,0,1,.98.618c2.229,2.656,4.428,5.336,6.629,8-.094,0-.329,0-.564,0a63.025,63.025,0,0,1-17.157-2.8c-2.181-.647-1.754-.266-1.4-2.3a57.393,57.393,0,0,1,12.526-26.693,54.8,54.8,0,0,1,8.76-8.062,58.824,58.824,0,0,1,10.675-6.372c.965-.48.995-.448,1.277.575.551,2,1.069,4,1.656,5.987a.946.946,0,0,1-.553,1.308c-1.952,1.034-3.954,2-5.806,3.194a43.783,43.783,0,0,0-15.611,17.463c-1.333,2.66-2.373,5.467-3.544,8.208A2.572,2.572,0,0,0,829.47,374.977Z" fill="#a3191e" stroke="#fff" stroke-miterlimit="10" stroke-width="1"/>
        <path id="Path_4576" data-name="Path 4576" d="M891.074,345.572a53.841,53.841,0,0,1-35.756,36.006,3.535,3.535,0,0,1-3.818-.537c-1.865-1.573-3.84-3.017-5.771-4.512-.231-.179-.477-.339-.716-.508l.121-.279c.94-.213,1.876-.452,2.823-.636a46.961,46.961,0,0,0,16.556-6.881,44.616,44.616,0,0,0,18.069-22.994c.23-.632.4-1.508.877-1.763.428-.231,1.237.209,1.867.393C887.226,344.415,889.12,344.989,891.074,345.572Z" fill="#a3191e" stroke="#fff" stroke-miterlimit="10" stroke-width="1"/>
        <path id="Path_4577" data-name="Path 4577" d="M863.965,310.9c-5.442,17.811-2.184,33.734,9.966,47.943l-5.8,5.744c-1.978-2.607-3.956-4.976-5.673-7.522a54.91,54.91,0,0,1-8.528-21.719,50.411,50.411,0,0,1-.536-13.379c.221-2.285.706-4.545,1.083-6.814a1.412,1.412,0,0,1,.979-1.2c2.607-.944,5.2-1.922,7.8-2.883C863.445,311.005,863.649,310.976,863.965,310.9Z" fill="#a3191e" stroke="#fff" stroke-miterlimit="10" stroke-width="1"/>
        <path id="Path_4578" data-name="Path 4578" d="M909.8,358.217c-.791-.856-1.5-1.623-2.21-2.393a42.579,42.579,0,0,0-17.213-11.21,50.715,50.715,0,0,0-12.215-2.844,35.2,35.2,0,0,0-9.43.058c-.966.162-1.954.187-2.926.319a.719.719,0,0,1-.881-.528,33.615,33.615,0,0,1-1.932-7.111c1.47-.252,2.889-.6,4.327-.719a70.425,70.425,0,0,1,7.863-.409,52.734,52.734,0,0,1,26.755,7.692,76.325,76.325,0,0,1,8.848,6.334,1.167,1.167,0,0,1,.41.855c-.374,3.145-.8,6.285-1.211,9.426A3.576,3.576,0,0,1,909.8,358.217Z" fill="#a3191e" stroke="#fff" stroke-miterlimit="10" stroke-width="1"/>
      </g>
      <path id="Path_4579" data-name="Path 4579" d="M924.277,368.214c1.557,3.836,5.161,12.959,7.318,20.359a2.6,2.6,0,0,1-1.71,3.207l-.1.033a2.606,2.606,0,0,1-3.251-1.613l-7.127-20.134a2.606,2.606,0,0,1,2.154-3.459h0A2.6,2.6,0,0,1,924.277,368.214Z" fill="#a3191e"/>
      <path id="Path_4580" data-name="Path 4580" d="M828.649,382.633c-3.962-.691-13.5-2.558-20.91-5.632a2.689,2.689,0,0,1-1.539-3.279l.045-.144a2.685,2.685,0,0,1,3.281-1.794l20.3,5.615a2.686,2.686,0,0,1,1.6,3.94h0A2.686,2.686,0,0,1,828.649,382.633Z" fill="#a3191e"/>
      <path id="Path_4581" data-name="Path 4581" d="M866.506,292.528c2.6-3.346,8.865-11.017,15.277-16.043a2.736,2.736,0,0,1,3.647.239l.08.081a2.731,2.731,0,0,1,.014,3.8l-14.893,15.489a2.729,2.729,0,0,1-4.155-.259h0A2.725,2.725,0,0,1,866.506,292.528Z" fill="#a3191e"/>
    </g>
  </g>
</svg>
