<svg xmlns="http://www.w3.org/2000/svg" width="268.858" height="66.348" viewBox="0 0 268.858 66.348">
  <g id="Homebyz-logo" transform="translate(-28.194 -0.256)">
    <g id="Group_5409" data-name="Group 5409" transform="translate(112.052 8.942)">
      <g id="Group_3116" data-name="Group 3116" transform="translate(0 -2.686)">
        <path id="Path_3332" data-name="Path 3332" d="M785.744,441.018q2.347,2.272,2.349,6.737v11.781H783.28V448.371a5.777,5.777,0,0,0-1.271-4.062,4.7,4.7,0,0,0-3.619-1.367,5.562,5.562,0,0,0-4.2,1.6,6.37,6.37,0,0,0-1.539,4.6v10.4h-4.813V430.969h4.813v10.394a7.831,7.831,0,0,1,2.945-1.944,10.8,10.8,0,0,1,3.907-.674A8.593,8.593,0,0,1,785.744,441.018Z" transform="translate(-767.842 -430.969)" fill="#a3191e"/>
        <path id="Path_3333" data-name="Path 3333" d="M807.01,442.112a9.857,9.857,0,0,0-3.836-3.693l-1.763,4.072c.144.123.285.252.421.391a7.126,7.126,0,0,1,0,9.316,5.874,5.874,0,0,1-4.388,1.77,7.092,7.092,0,0,1-.97-.07l-1.694,3.916a12.8,12.8,0,0,0,2.664.274,11.748,11.748,0,0,0,5.659-1.347,9.812,9.812,0,0,0,3.907-3.755,11.216,11.216,0,0,0,0-10.875Z" transform="translate(-761.64 -429.254)" fill="#a3191e"/>
        <path id="Path_3334" data-name="Path 3334" d="M794.622,452.459a7.188,7.188,0,0,1,0-9.317,5.814,5.814,0,0,1,4.37-1.772,7.116,7.116,0,0,1,1.2.1l1.674-3.869a12.974,12.974,0,0,0-2.871-.312,11.668,11.668,0,0,0-5.621,1.348,9.853,9.853,0,0,0-3.907,3.734,11.216,11.216,0,0,0,0,10.875A9.812,9.812,0,0,0,793.371,457l.08.039,1.757-4.059A5.963,5.963,0,0,1,794.622,452.459Z" transform="translate(-763.188 -429.514)" fill="#a3191e"/>
        <path id="Path_3335" data-name="Path 3335" d="M841.727,439.543Q844,441.794,844,446.3V458.08h-4.813V446.915a6.022,6.022,0,0,0-1.193-4.062,4.308,4.308,0,0,0-3.426-1.367,5.024,5.024,0,0,0-3.889,1.6,6.517,6.517,0,0,0-1.463,4.562V458.08H824.4V446.915a6.028,6.028,0,0,0-1.192-4.062,4.312,4.312,0,0,0-3.427-1.367,5.035,5.035,0,0,0-3.907,1.578,6.56,6.56,0,0,0-1.444,4.581V458.08h-4.813V437.521H814.2v2.618a7.474,7.474,0,0,1,2.887-2.117,9.809,9.809,0,0,1,3.849-.732,9.31,9.31,0,0,1,4.1.866,6.664,6.664,0,0,1,2.829,2.56,8.561,8.561,0,0,1,3.272-2.521,10.629,10.629,0,0,1,4.428-.906A8.369,8.369,0,0,1,841.727,439.543Z" transform="translate(-758.224 -429.514)" fill="#a3191e"/>
        <path id="Path_3336" data-name="Path 3336" d="M862.294,449.34H846.163a5.588,5.588,0,0,0,2.213,3.6,7.253,7.253,0,0,0,4.446,1.329,7.494,7.494,0,0,0,5.583-2.233l2.58,2.965a8.7,8.7,0,0,1-3.5,2.5,13.888,13.888,0,0,1-10.741-.5,9.7,9.7,0,0,1-3.985-3.755,10.6,10.6,0,0,1-1.4-5.447,10.75,10.75,0,0,1,1.367-5.408,9.685,9.685,0,0,1,3.793-3.753,11.064,11.064,0,0,1,5.466-1.348,10.787,10.787,0,0,1,5.371,1.329,9.415,9.415,0,0,1,3.7,3.734,11.327,11.327,0,0,1,1.327,5.564Q862.37,448.417,862.294,449.34Zm-14.225-6.833a5.74,5.74,0,0,0-1.944,3.638H857.79a5.621,5.621,0,0,0-5.814-5A5.8,5.8,0,0,0,848.068,442.507Z" transform="translate(-750.918 -429.514)" fill="#a3191e"/>
        <path id="Path_3337" data-name="Path 3337" d="M878.958,440.054a9.449,9.449,0,0,1,3.715,3.7,11.96,11.96,0,0,1,0,11.029,9.409,9.409,0,0,1-3.715,3.715,10.915,10.915,0,0,1-5.37,1.309,9.948,9.948,0,0,1-3.869-.731,7.438,7.438,0,0,1-2.945-2.195v2.656h-4.581V430.969H867v10.51a8.078,8.078,0,0,1,2.907-2.04,9.518,9.518,0,0,1,3.677-.694A10.915,10.915,0,0,1,878.958,440.054Zm-1.539,13.86a7.191,7.191,0,0,0,0-9.316,5.818,5.818,0,0,0-4.371-1.772,6.186,6.186,0,0,0-3.117.79,5.706,5.706,0,0,0-2.195,2.253,7.5,7.5,0,0,0,0,6.775,5.7,5.7,0,0,0,2.195,2.253,6.183,6.183,0,0,0,3.117.789A5.817,5.817,0,0,0,877.418,453.914Z" transform="translate(-746.12 -430.969)" fill="#a3191e"/>
        <path id="Path_3338" data-name="Path 3338" d="M903.153,437.478l-9.625,22.214a10.34,10.34,0,0,1-3.272,4.715,7.842,7.842,0,0,1-4.658,1.367,9.563,9.563,0,0,1-3.041-.5,6.737,6.737,0,0,1-2.464-1.385l1.924-3.542a5.27,5.27,0,0,0,1.636,1.04,5.018,5.018,0,0,0,1.905.384,3.278,3.278,0,0,0,2.1-.655,5.8,5.8,0,0,0,1.521-2.193l.347-.808-8.971-20.636h5l6.469,15.207,6.507-15.207Z" transform="translate(-741.998 -429.47)" fill="#a3191e"/>
        <path id="Path_3339" data-name="Path 3339" d="M917.336,454.186v3.851H899.587V455l11.281-13.668h-11.05v-3.849h17.21v3.041l-11.319,13.667Z" transform="translate(-737.51 -429.47)" fill="#a3191e"/>
      </g>
      <text id="empowering_homepreneurs" data-name="empowering homepreneurs" transform="translate(0 46.495)" fill="#a3191e" font-size="13" font-family="Montserrat-Regular, Montserrat"><tspan x="0" y="0">empowering homepreneurs</tspan></text>
    </g>
    <g id="Group_3119" data-name="Group 3119" transform="translate(28.194 0.256)">
      <g id="Group_3118" data-name="Group 3118">
        <g id="Group_3117" data-name="Group 3117" transform="translate(7.576 5.552)">
          <path id="Path_3340" data-name="Path 3340" d="M830.228,414.654c-.472-.047-.944-.094-1.416-.139a24.937,24.937,0,0,1-16.077-7.854,34.738,34.738,0,0,1-3.672-4.668.476.476,0,0,1-.078-.364,24.412,24.412,0,0,1,2.369-4.68c.273.526.531,1.032.8,1.536a21.364,21.364,0,0,0,15.832,11.648,23.875,23.875,0,0,0,5.138.28,22.3,22.3,0,0,0,5.845-1.3,18.262,18.262,0,0,0,3.986-1.916,3.154,3.154,0,0,1,2.6-.484c1.239.286,2.523.376,3.787.553.108.015.215.042.411.082-.487.413-.908.783-1.343,1.135a26.533,26.533,0,0,1-10.724,5.447,25.5,25.5,0,0,1-4.6.656,4.1,4.1,0,0,0-.442.066Z" transform="translate(-802.64 -354.358)" fill="#a3191e" stroke="#fff" stroke-miterlimit="10" stroke-width="1"/>
          <path id="Path_3341" data-name="Path 3341" d="M835.458,342.267c.738.619,1.5,1.209,2.209,1.862a28.883,28.883,0,0,1,8.185,12.756,30.419,30.419,0,0,1,1.414,6.474,45.256,45.256,0,0,1,.037,6.212l-3.749-1.1c-.639-.189-.631-.189-.641-.842-.018-1.266.042-2.543-.1-3.8a38.081,38.081,0,0,0-.737-3.9,22.9,22.9,0,0,0-4.17-8.864c-.651-.875-1.369-1.7-2.055-2.55a2.215,2.215,0,0,1-.141-.237c-.4.47-.749.858-1.064,1.274a1.422,1.422,0,0,1-.907.548q-2.52.493-5.042.981a.783.783,0,0,1-.167-.038,30.4,30.4,0,0,1,6.847-8.774Z" transform="translate(-806.966 -342.267)" fill="#a3191e" stroke="#fff" stroke-miterlimit="10" stroke-width="1"/>
          <path id="Path_3342" data-name="Path 3342" d="M868.829,403.823a31.964,31.964,0,0,1-6.684,1.8,37.992,37.992,0,0,1-6.955.092,26.167,26.167,0,0,1-7.5-1.589,31.852,31.852,0,0,1-6.776-3.449c-.173-.119-.336-.253-.541-.407.467-.487.9-.95,1.349-1.4.5-.508,1.026-1,1.53-1.506a.44.44,0,0,1,.649-.058,25.981,25.981,0,0,0,6.826,3.063,25.114,25.114,0,0,0,8.28,1.019c1.46-.073,2.912-.3,4.412-.467-.234-.611-.448-1.142-.636-1.682a.788.788,0,0,1-.018-.464c.556-1.736,1.125-3.468,1.692-5.2.023-.071.055-.139.111-.273.122.185.224.329.318.481a32.682,32.682,0,0,1,3.87,9.8,1.076,1.076,0,0,0,.071.168Z" transform="translate(-809.584 -353.551)" fill="#a3191e" stroke="#fff" stroke-miterlimit="10" stroke-width="1"/>
          <path id="Path_3343" data-name="Path 3343" d="M805.147,384.868a29.677,29.677,0,0,1-.577-7.528,24.942,24.942,0,0,1,2.883-10.291,26.087,26.087,0,0,1,10.49-10.753,26.88,26.88,0,0,1,8.456-2.975,25.123,25.123,0,0,1,5.025-.312.509.509,0,0,1,.345.158,22.7,22.7,0,0,1,2.614,4.162,2.564,2.564,0,0,1,.1.291c-.549-.061-1.058-.1-1.563-.177a20.6,20.6,0,0,0-5.994.141,20.309,20.309,0,0,0-9.672,4.288,22.163,22.163,0,0,0-7.837,11.908,19.993,19.993,0,0,0-.666,5.919,1.261,1.261,0,0,1-.3.885c-1.008,1.281-1.985,2.587-2.974,3.884C805.392,384.584,805.294,384.693,805.147,384.868Z" transform="translate(-801.656 -344.639)" fill="#a3191e" stroke="#fff" stroke-miterlimit="10" stroke-width="1"/>
          <path id="Path_3344" data-name="Path 3344" d="M857.91,392.366c.088-.157.153-.286.231-.407a25.565,25.565,0,0,0,2.82-5.42,21.736,21.736,0,0,0,1.155-8.54,21.046,21.046,0,0,0-4.6-11.977,31.544,31.544,0,0,0-3.607-3.568c-.7-.639-1.519-1.147-2.278-1.723a.864.864,0,0,1-.306-.354,37.855,37.855,0,0,0-2.164-5.229,1.145,1.145,0,0,1-.034-.206c.655.262,1.26.483,1.847.745a24.2,24.2,0,0,1,7.857,5.328,26.584,26.584,0,0,1,7.041,13.421,27.212,27.212,0,0,1,.51,7.072,25.514,25.514,0,0,1-1.463,6.73,17.385,17.385,0,0,1-1.724,3.742.568.568,0,0,1-.507.31c-1.531.034-3.061.077-4.592.115A1.127,1.127,0,0,1,857.91,392.366Z" transform="translate(-811.52 -345.069)" fill="#a3191e" stroke="#fff" stroke-miterlimit="10" stroke-width="1"/>
          <path id="Path_3345" data-name="Path 3345" d="M806.114,399.176c.42.1.824.164,1.211.286a1.2,1.2,0,0,1,.538.34c1.224,1.459,2.432,2.931,3.641,4.395-.051,0-.18,0-.309,0a34.608,34.608,0,0,1-9.424-1.538c-1.2-.355-.963-.146-.771-1.262a31.534,31.534,0,0,1,6.88-14.662,30.127,30.127,0,0,1,4.812-4.428,32.342,32.342,0,0,1,5.863-3.5c.53-.264.547-.246.7.315.3,1.1.587,2.2.91,3.289a.521.521,0,0,1-.3.719c-1.073.568-2.172,1.1-3.189,1.754a24.045,24.045,0,0,0-8.575,9.592c-.732,1.461-1.3,3-1.946,4.508A1.491,1.491,0,0,0,806.114,399.176Z" transform="translate(-800.843 -350.31)" fill="#a3191e" stroke="#fff" stroke-miterlimit="10" stroke-width="1"/>
          <path id="Path_3346" data-name="Path 3346" d="M843.87,383.932a29.574,29.574,0,0,1-19.639,19.777,1.943,1.943,0,0,1-2.1-.3c-1.024-.864-2.109-1.657-3.169-2.478-.127-.1-.262-.186-.393-.279l.066-.153c.516-.118,1.03-.248,1.551-.35a25.8,25.8,0,0,0,9.094-3.779,24.508,24.508,0,0,0,9.925-12.63c.126-.347.221-.829.481-.969.235-.127.68.115,1.026.217C841.756,383.3,842.8,383.612,843.87,383.932Z" transform="translate(-804.763 -351.216)" fill="#a3191e" stroke="#fff" stroke-miterlimit="10" stroke-width="1"/>
          <path id="Path_3347" data-name="Path 3347" d="M830.252,359.82c-2.989,9.783-1.2,18.529,5.474,26.333l-3.186,3.155c-1.087-1.432-2.173-2.733-3.116-4.131a30.168,30.168,0,0,1-4.684-11.929,27.7,27.7,0,0,1-.294-7.349c.121-1.255.387-2.5.594-3.743a.775.775,0,0,1,.538-.657c1.432-.519,2.856-1.056,4.285-1.583C829.967,359.878,830.078,359.862,830.252,359.82Z" transform="translate(-806.035 -346.148)" fill="#a3191e" stroke="#fff" stroke-miterlimit="10" stroke-width="1"/>
          <path id="Path_3348" data-name="Path 3348" d="M856.959,389.312c-.435-.47-.825-.891-1.214-1.314a23.386,23.386,0,0,0-9.455-6.157,27.848,27.848,0,0,0-6.709-1.562,19.351,19.351,0,0,0-5.18.032c-.53.089-1.073.1-1.607.175a.4.4,0,0,1-.484-.29,18.465,18.465,0,0,1-1.062-3.906c.808-.139,1.587-.329,2.377-.395a38.928,38.928,0,0,1,4.318-.225,28.968,28.968,0,0,1,14.7,4.225,41.828,41.828,0,0,1,4.86,3.478.64.64,0,0,1,.225.47c-.206,1.728-.437,3.452-.665,5.177A1.921,1.921,0,0,1,856.959,389.312Z" transform="translate(-807.566 -349.651)" fill="#a3191e" stroke="#fff" stroke-miterlimit="10" stroke-width="1"/>
        </g>
        <path id="Path_3349" data-name="Path 3349" d="M873.684,399.984c.854,2.107,2.834,7.117,4.019,11.182a1.429,1.429,0,0,1-.939,1.761l-.055.018a1.432,1.432,0,0,1-1.786-.886L871.008,401a1.432,1.432,0,0,1,1.184-1.9h0A1.431,1.431,0,0,1,873.684,399.984Z" transform="translate(-808.762 -349.279)" fill="#a3191e"/>
        <path id="Path_3350" data-name="Path 3350" d="M803.512,408.7a60.112,60.112,0,0,1-11.485-3.094,1.476,1.476,0,0,1-.845-1.8l.024-.079a1.476,1.476,0,0,1,1.8-.985l11.151,3.084a1.475,1.475,0,0,1,.881,2.164h0A1.474,1.474,0,0,1,803.512,408.7Z" transform="translate(-791.116 -350.074)" fill="#a3191e"/>
        <path id="Path_3351" data-name="Path 3351" d="M833.638,344.271a55.371,55.371,0,0,1,8.392-8.812,1.5,1.5,0,0,1,2,.131l.044.045a1.5,1.5,0,0,1,.008,2.087l-8.18,8.508a1.5,1.5,0,0,1-2.282-.143h0A1.5,1.5,0,0,1,833.638,344.271Z" transform="translate(-800.448 -335.139)" fill="#a3191e"/>
      </g>
    </g>
  </g>
</svg>
