<svg xmlns="http://www.w3.org/2000/svg" width="67.331" height="53.739" viewBox="0 0 67.331 53.739">
  <g id="newsletter" transform="translate(0.125 0.145)">
    <path id="Path_4223" data-name="Path 4223" d="M473.8,214.074l-7.567-4.082v-5.617a1.791,1.791,0,0,0-1.79-1.789h-3.275a.981.981,0,0,0,0,1.962h3.1v14.6l-8.7,5.161a.981.981,0,0,0,1,1.688l16.545-9.811c0,.01,0,.021,0,.031v31.822a.468.468,0,0,1-.186.372L449.039,230.46l3.82-2.266a.981.981,0,1,0-1-1.687l-8.979,5.324a2.668,2.668,0,0,1-2.721,0l-21.395-12.686v-14.6H456.99a.981.981,0,1,0,0-1.962h-4.483l-9.812-5.293a2.422,2.422,0,0,0-2.309,0l-9.813,5.293H418.59a1.791,1.791,0,0,0-1.789,1.789v5.641l-7.523,4.058A2.429,2.429,0,0,0,408,216.214v31.822a2.435,2.435,0,0,0,2.432,2.433h62.217a2.435,2.435,0,0,0,2.432-2.433V216.214a2.429,2.429,0,0,0-1.277-2.141ZM441.317,199.02a.471.471,0,0,1,.446,0l6.61,3.566H434.707Zm24.919,13.2,5.086,2.744-5.086,3.015Zm-24.718,21.945a4.627,4.627,0,0,0,2.361-.648l3.333-1.976L469.8,248.506H413.372l4.893-3.676a.981.981,0,0,0-1.178-1.569l-6.893,5.178a.469.469,0,0,1-.232-.4V216.214s0,0,0-.006l24.109,14.3-13.639,10.245a.982.982,0,0,0,1.179,1.569L435.9,231.586l3.259,1.933a4.629,4.629,0,0,0,2.362.648ZM416.8,217.981l-5.065-3,5.065-2.732Zm0,0" transform="translate(-408 -197)" fill="#eb1018" stroke="#eb1018" stroke-width="0.25"/>
    <path id="Path_4224" data-name="Path 4224" d="M527.716,261.665V258.59l2.168,3.583a.981.981,0,0,0,1.821-.508v-6.592a.981.981,0,1,0-1.962,0v3.075l-2.168-3.583a.981.981,0,0,0-1.821.508v6.593a.981.981,0,1,0,1.962,0Zm0,0" transform="translate(-505.184 -244.117)" fill="#eb1018" stroke="#eb1018" stroke-width="0.25"/>
    <path id="Path_4225" data-name="Path 4225" d="M572.911,256.056a.981.981,0,1,0,0-1.962H569.63a1.549,1.549,0,0,0-1.548,1.547V261.1a1.549,1.549,0,0,0,1.548,1.547h3.282a.981.981,0,0,0,0-1.962h-2.866v-1.334h.943a.981.981,0,0,0,0-1.962h-.943v-1.334Zm0,0" transform="translate(-540.117 -244.121)" fill="#eb1018" stroke="#eb1018" stroke-width="0.25"/>
    <path id="Path_4226" data-name="Path 4226" d="M610.4,262.634a.98.98,0,0,0,1.031-.548l.583-1.226.515,1.352a.982.982,0,0,0,.917.632c.035,0,.069,0,.1-.005a.981.981,0,0,0,.867-.826l1.05-6.792a.981.981,0,1,0-1.939-.3l-.483,3.127-.012-.031a.982.982,0,0,0-1.8-.072l-.184.387-.5-3.4a.981.981,0,1,0-1.942.286l.974,6.593a.983.983,0,0,0,.826.826Zm0,0" transform="translate(-573.55 -244.117)" fill="#eb1018" stroke="#eb1018" stroke-width="0.25"/>
    <path id="Path_4227" data-name="Path 4227" d="M656.727,260.886a.981.981,0,1,0,0,1.962h3.018a1.869,1.869,0,0,0,1.867-1.867v-1.724a1.869,1.869,0,0,0-1.867-1.868h-2.036v-1.334h2.922a.981.981,0,1,0,0-1.962h-3.017a1.869,1.869,0,0,0-1.867,1.867v1.525a1.869,1.869,0,0,0,1.867,1.867h2.036v1.533Zm0,0" transform="translate(-612.467 -244.121)" fill="#eb1018" stroke="#eb1018" stroke-width="0.25"/>
    <path id="Path_4228" data-name="Path 4228" d="M540.551,319.465a.981.981,0,0,0-.981-.981H509.04a.981.981,0,0,0,0,1.963h30.529a.981.981,0,0,0,.981-.981Zm0,0" transform="translate(-490.58 -297.261)" fill="#eb1018" stroke="#eb1018" stroke-width="0.25"/>
    <path id="Path_4229" data-name="Path 4229" d="M544.618,344.941a.981.981,0,1,0,0,1.963h18.1a.981.981,0,0,0,0-1.963Zm0,0" transform="translate(-519.942 -319.097)" fill="#eb1018" stroke="#eb1018" stroke-width="0.25"/>
  </g>
</svg>
