<svg id="social-connectivity" xmlns="http://www.w3.org/2000/svg" width="65.607" height="65.569" viewBox="0 0 65.607 65.569">
  <path id="Path_4518" data-name="Path 4518" d="M130.384,208.831a1.3,1.3,0,0,0-1.23-1.3,1.258,1.258,0,0,0-1.308,1.2,1.306,1.306,0,0,0,1.249,1.343A1.323,1.323,0,0,0,130.384,208.831ZM169.1,190.908a1.318,1.318,0,0,0-1.246-1.3,1.273,1.273,0,0,0-.056,2.544A1.321,1.321,0,0,0,169.1,190.908Zm16.679,39.437a1.3,1.3,0,0,0-1.248-1.273,1.271,1.271,0,1,0,1.248,1.273Z" transform="translate(-123.628 -186.176)" fill="#a3191e"/>
  <path id="Path_4519" data-name="Path 4519" d="M101.565,199.706c.215-1.041.363-2.1.663-3.116a21.369,21.369,0,0,1,1.105-2.787,1.279,1.279,0,1,1,2.31,1.059,13.779,13.779,0,0,0-1.474,5.52,13.179,13.179,0,0,0,1.579,6.856,7.8,7.8,0,0,1,6.063-4.862c-.179-.3-.333-.549-.469-.8-1.069-1.991-1.227-6.479.962-8.871,2.949-3.222,8.507-2.723,10.553,1.131a8.353,8.353,0,0,1-.082,8.2c-.049.093-.092.189-.165.34a7.8,7.8,0,0,1,6.035,4.879,11.909,11.909,0,0,0,1.491-4.569,12.949,12.949,0,0,0-10.96-14.583,12.533,12.533,0,0,0-7.437,1.02c-.272.123-.536.266-.815.37a1.25,1.25,0,0,1-1.675-.611,1.218,1.218,0,0,1,.612-1.675,21.362,21.362,0,0,1,3.389-1.313,15.464,15.464,0,0,1,16.671,6.054c.125.172.258.337.408.532.18-.081.355-.148.519-.236,3.537-1.889,7.068-3.789,10.613-5.662.44-.233.547-.424.365-.923a12.753,12.753,0,0,1,.012-8.9c.357-1,1.235-1.37,2-.847a1.269,1.269,0,0,1,.426,1.651,11,11,0,0,0-.648,4.211,10.235,10.235,0,0,0,1.4,4.7,6.272,6.272,0,0,1,4.445-3.838,7.284,7.284,0,0,1-.388-5.617,5.336,5.336,0,0,1,10.315,1.006,7.134,7.134,0,0,1-.666,4.6,6.81,6.81,0,0,1,4.59,3.8,24.118,24.118,0,0,0,.9-2.393,10.453,10.453,0,0,0-7.86-13.018,9.857,9.857,0,0,0-5.245.2,10.362,10.362,0,0,1-1.044.3,1.248,1.248,0,0,1-1.556-.869,1.232,1.232,0,0,1,.819-1.535,15.748,15.748,0,0,1,2.9-.769,13.055,13.055,0,1,1-8.687,20.59c-.089-.119-.182-.235-.314-.4l-11.688,6.248a15.838,15.838,0,0,1,0,12.429l11.7,6.254a13.109,13.109,0,0,1,15.395-4.994,1.306,1.306,0,0,1,.985,1.672,1.288,1.288,0,0,1-1.779.757,11.836,11.836,0,0,0-5.1-.574,10.558,10.558,0,0,0-9.027,8.919,10.713,10.713,0,0,0,1.29,6.72,6.3,6.3,0,0,1,4.48-3.857,7.247,7.247,0,0,1-.654-4.674,5.337,5.337,0,0,1,10.285-1,7.308,7.308,0,0,1-.36,5.666,6.274,6.274,0,0,1,4.413,3.818,4.517,4.517,0,0,0,.293-.439,10.3,10.3,0,0,0,.656-7.889,8.954,8.954,0,0,1-.269-.918,1.234,1.234,0,0,1,.839-1.517,1.218,1.218,0,0,1,1.555.773,15.539,15.539,0,0,1,.78,2.893,12.9,12.9,0,0,1-7.724,13.866,24.7,24.7,0,0,1-3.43.977l-.479.133h-2.563a1.937,1.937,0,0,0-.352-.118,13.019,13.019,0,0,1-10.647-17.377c.164-.468.068-.656-.352-.878-3.542-1.874-7.071-3.772-10.605-5.662-.166-.089-.34-.164-.529-.255-.147.188-.282.351-.405.522a15.608,15.608,0,0,1-27.347-3.547,41.009,41.009,0,0,1-1.022-4.2Zm15.626,14.357a13.046,13.046,0,0,0,9.063-3.675.888.888,0,0,0,.268-.594,4.526,4.526,0,0,0-2.491-4.174,23.014,23.014,0,0,0-3.633-1.165.939.939,0,0,0-.543.119,6.664,6.664,0,0,1-5.343,0,1.285,1.285,0,0,0-.73-.068q-1.152.259-2.285.6a4.864,4.864,0,0,0-3.615,4.525,1.107,1.107,0,0,0,.279.772A13.034,13.034,0,0,0,117.191,214.063Zm36.4-22.3a10.809,10.809,0,0,0,7.038-2.292.97.97,0,0,0,.352-.551,3.468,3.468,0,0,0-2.244-3.578,12.582,12.582,0,0,0-1.782-.5,1.774,1.774,0,0,0-.908.052,4.962,4.962,0,0,1-3.444.11,2.807,2.807,0,0,0-1.966-.023c-.2.067-.412.109-.616.167a3.554,3.554,0,0,0-2.812,3.509.882.882,0,0,0,.4.851A10.231,10.231,0,0,0,153.589,191.763Zm.6,39.465a10.419,10.419,0,0,0,6.432-2.292.958.958,0,0,0,.358-.546,3.466,3.466,0,0,0-2.236-3.582,12.809,12.809,0,0,0-1.781-.5,1.779,1.779,0,0,0-.908.047,4.927,4.927,0,0,1-3.442.113,2.885,2.885,0,0,0-2.028-.008c-.182.059-.37.1-.554.151a3.49,3.49,0,0,0-2.8,3.564,1.036,1.036,0,0,0,.33.732A10.423,10.423,0,0,0,154.189,231.228Zm-32.927-33.342c-.023-.362-.036-.724-.07-1.085a3.967,3.967,0,0,0-3.457-3.636,3.867,3.867,0,0,0-4.375,2.9,9.467,9.467,0,0,0-.133,2.915,3.978,3.978,0,0,0,5.761,3.159A4.215,4.215,0,0,0,121.263,197.886Zm35.669-18.505c-.014-.3-.006-.6-.045-.892a2.827,2.827,0,0,0-2.737-2.477,2.765,2.765,0,0,0-2.789,2.327,6.8,6.8,0,0,0,0,2.032,2.589,2.589,0,0,0,1.913,2.176,2.677,2.677,0,0,0,2.774-.657A3.054,3.054,0,0,0,156.932,179.381ZM151.3,218.765c0,.213-.009.426,0,.639a2.805,2.805,0,0,0,5.606.066,8.779,8.779,0,0,0-.009-1.4,2.8,2.8,0,0,0-3.7-2.438C151.945,216.052,151.294,217.125,151.3,218.765Z" transform="translate(-101.565 -168.219)" fill="#a3191e"/>
  <path id="Path_4520" data-name="Path 4520" d="M130.384,302.621a1.322,1.322,0,0,1-1.289,1.247,1.306,1.306,0,0,1-1.249-1.343,1.258,1.258,0,0,1,1.308-1.2A1.3,1.3,0,0,1,130.384,302.621Z" transform="translate(-123.628 -279.965)" fill="#a3191e"/>
  <path id="Path_4521" data-name="Path 4521" d="M371.653,190.908a1.321,1.321,0,0,1-1.3,1.245,1.273,1.273,0,1,1,1.3-1.245Z" transform="translate(-326.181 -186.176)" fill="#a3191e"/>
  <path id="Path_4522" data-name="Path 4522" d="M475.564,436.818a1.274,1.274,0,1,1-1.248-1.273A1.3,1.3,0,0,1,475.564,436.818Z" transform="translate(-413.413 -392.649)" fill="#a3191e"/>
</svg>
