<svg id="start-up" xmlns="http://www.w3.org/2000/svg" width="65.608" height="64.746" viewBox="0 0 65.608 64.746">
  <path id="Path_4535" data-name="Path 4535" d="M-578,390.588a11.994,11.994,0,0,1,.764-.934q5.109-5.137,10.232-10.26c.151-.151.3-.311.46-.446a1.279,1.279,0,0,1,1.745.038,1.265,1.265,0,0,1,.069,1.743,4.693,4.693,0,0,1-.352.372q-5.209,5.22-10.418,10.438c-.977.978-1.682.926-2.5-.18Z" transform="translate(578 -339.561)" fill="#a3191e"/>
  <path id="Path_4536" data-name="Path 4536" d="M-527.347,198.485c-.115-.123-.2-.218-.29-.308l-3.618-3.63c-.152.132-.3.244-.425.372-.939.936-1.868,1.882-2.812,2.812a1.3,1.3,0,0,1-2.026.032q-2.3-2.28-4.576-4.586a1.259,1.259,0,0,1,.02-1.973c1.063-1.079,2.141-2.143,3.2-3.2L-541.7,184.2a26.485,26.485,0,0,1-3.491,1.008,6.579,6.579,0,0,1-5.653-1.83c-1.5-1.4-2.923-2.882-4.366-4.342a1.251,1.251,0,0,1-.013-1.931c1.486-1.507,2.938-3.056,4.508-4.471a11.061,11.061,0,0,1,9.2-2.786c2.878.371,5.748.814,8.626,1.191a1.137,1.137,0,0,0,.823-.295c1.682-1.644,3.334-3.318,5-4.983.136-.136.266-.28.413-.4a1.283,1.283,0,0,1,1.745.03,1.248,1.248,0,0,1,.077,1.74,7.952,7.952,0,0,1-.576.6q-6.978,6.992-13.961,13.98a3.708,3.708,0,0,1-.538.384l3.958,3.946c.1-.094.272-.242.432-.4,2.011-2.011,3.993-4.051,6.036-6.029a4.586,4.586,0,0,1,7.609,1.92,4.544,4.544,0,0,1-1.21,4.778q-2.914,2.937-5.848,5.854a3.18,3.18,0,0,1-.539.367l3.964,3.973c.121-.115.3-.283.479-.459q10.989-11.01,21.983-22.015a15.671,15.671,0,0,0,4.208-7.216c.688-2.6,1.451-5.184,2.188-7.773a4.461,4.461,0,0,0-1.113-4.622,4.421,4.421,0,0,0-4.6-1.177q-4.407,1.224-8.8,2.518a13.6,13.6,0,0,0-5.481,3.2c-.866.809-1.585.9-2.167.295s-.432-1.372.4-2.155a16.839,16.839,0,0,1,7.01-3.973c2.788-.8,5.577-1.6,8.374-2.362a7.137,7.137,0,0,1,8.89,8.765c-.762,2.936-1.616,5.848-2.468,8.759a17,17,0,0,1-4.421,7.333Q-507.521,182.105-514,188.6a1.153,1.153,0,0,0-.406,1.107c.429,2.919.849,5.841,1.206,8.769a10.983,10.983,0,0,1-2.888,9.05c-1.378,1.519-2.872,2.933-4.33,4.378a1.3,1.3,0,0,1-2.025-.033c-1.184-1.174-2.311-2.412-3.545-3.53A7.472,7.472,0,0,1-527.347,198.485Zm10.616-7.06c-.175.133-.248.177-.306.235-2.566,2.569-5.15,5.12-7.688,7.717a4.664,4.664,0,0,0-.026,6.543c.626.672,1.3,1.3,1.937,1.959.455.469.888.959,1.358,1.469,1.14-1.152,2.166-2.179,3.181-3.216a8.414,8.414,0,0,0,2.577-6.792C-515.921,196.731-516.367,194.142-516.731,191.425Zm-35.756-13.28c.988.989,2.009,2.022,3.042,3.044a4.7,4.7,0,0,0,6.956.01q3.7-3.688,7.386-7.4c.108-.109.2-.237.355-.43-2.635-.354-5.166-.749-7.71-1.018a8.058,8.058,0,0,0-6.4,2.066C-550.126,175.552-551.244,176.858-552.487,178.146Zm16.976,16.954c.107-.1.2-.176.292-.264q5.141-5.149,10.278-10.3a2.953,2.953,0,0,0,.373-.438,2.073,2.073,0,0,0-1.521-3.227,2.2,2.2,0,0,0-1.821.761Q-533,186.742-538.1,191.842c-.114.114-.209.246-.328.388.918.921,1.807,1.813,2.7,2.7A2.24,2.24,0,0,0-535.512,195.1Z" transform="translate(559.497 -150.488)" fill="#a3191e"/>
  <path id="Path_4537" data-name="Path 4537" d="M-334.693,229.246a5.706,5.706,0,0,1,5.758-5.725,5.735,5.735,0,0,1,5.729,5.766,5.783,5.783,0,0,1-5.771,5.743A5.748,5.748,0,0,1-334.693,229.246Zm5.787-3.161a3.15,3.15,0,0,0-3.228,3.108,3.154,3.154,0,0,0,3.155,3.25,3.186,3.186,0,0,0,3.21-3.145A3.178,3.178,0,0,0-328.906,226.085Z" transform="translate(376.354 -211.016)" fill="#a3191e"/>
  <path id="Path_4538" data-name="Path 4538" d="M-567.374,454.376c-.408-.327-.875-.53-1.03-.874a2.191,2.191,0,0,1,.032-1.262c.048-.217.316-.39.5-.571q5.949-5.965,11.9-11.926a4.649,4.649,0,0,1,.466-.438,1.246,1.246,0,0,1,1.64.083,1.238,1.238,0,0,1,.186,1.632,2.913,2.913,0,0,1-.377.434q-6.063,6.078-12.137,12.145A7.515,7.515,0,0,1-567.374,454.376Z" transform="translate(570.116 -389.631)" fill="#a3191e"/>
  <path id="Path_4539" data-name="Path 4539" d="M-463.387,450.512c-.361-.275-.833-.466-1-.806a2.463,2.463,0,0,1-.011-1.267c.02-.159.222-.3.356-.44,1.945-1.954,3.885-3.915,5.852-5.847a2.228,2.228,0,0,1,1.033-.55.952.952,0,0,1,1.143.617,3.756,3.756,0,0,1-.025,1.331c-.007.088-.118.174-.193.249-2.053,2.058-4.1,4.122-6.17,6.164A4.661,4.661,0,0,1-463.387,450.512Z" transform="translate(483.913 -391.734)" fill="#a3191e"/>
  <path id="Path_4540" data-name="Path 4540" d="M-363.372,213.856a1.219,1.219,0,0,1-1.283,1.218,1.247,1.247,0,0,1-1.257-1.26,1.294,1.294,0,0,1,1.331-1.27A1.263,1.263,0,0,1-363.372,213.856Z" transform="translate(402.228 -201.918)" fill="#a3191e"/>
  <path id="Path_4541" data-name="Path 4541" d="M-487.583,505.707a1.242,1.242,0,0,1-1.246,1.264,1.267,1.267,0,0,1-1.288-1.3,1.275,1.275,0,0,1,1.29-1.236A1.252,1.252,0,0,1-487.583,505.707Z" transform="translate(505.166 -443.832)" fill="#a3191e"/>
</svg>
