<svg id="talk-to-us" xmlns="http://www.w3.org/2000/svg" width="67.081" height="74.664" viewBox="0 0 67.081 74.664">
  <path id="Path_4200" data-name="Path 4200" d="M476.5,204.476H468v-3.314a14.348,14.348,0,0,0,6.171-7.869h1.961a7.884,7.884,0,0,0,5.118-13.886v-.7a20.708,20.708,0,1,0-41.415,0v.7a7.884,7.884,0,0,0,5.118,13.886h1.961a14.344,14.344,0,0,0,6.171,7.869v3.314h-8.5A17.606,17.606,0,0,0,427,222.062v9.144a1.459,1.459,0,0,0,1.458,1.458h9.652a1.458,1.458,0,0,0,0-2.917h-8.194v-7.686a14.686,14.686,0,0,1,14.669-14.67h.7l8.671,11.326a1.455,1.455,0,0,0,1.062.569c.032,0,.064,0,.1,0a1.458,1.458,0,0,0,1.031-.427l2.936-2.936v13.82H445.235a1.458,1.458,0,1,0,0,2.917h47.388a1.459,1.459,0,0,0,1.458-1.458v-9.144A17.606,17.606,0,0,0,476.5,204.476Zm-8.878,2.917h4.5l-6.3,8.232-3.218-3.217Zm-2.033-34.152a1.458,1.458,0,0,0-2.062,0l-1.944,1.949a11.446,11.446,0,0,1-8.158,3.385h-4.251a11.372,11.372,0,0,1,22.743,0h-2.53a5.527,5.527,0,0,1-4.6-2.471l.8-.8a1.458,1.458,0,0,0,0-2.063Zm10.545,17.136h-1.3v-9.945h1.3a4.973,4.973,0,0,1,0,9.945Zm-15.589-29.46a17.813,17.813,0,0,1,17.769,16.906,7.857,7.857,0,0,0-2.18-.308h-1.348a14.291,14.291,0,0,0-28.482,0h-1.348a7.857,7.857,0,0,0-2.18.309,17.813,17.813,0,0,1,17.769-16.906Zm-14.291,29.46h-1.3a4.973,4.973,0,0,1,0-9.946h1.3Zm2.917-1.383v-7.5h4.254a14.331,14.331,0,0,0,9.242-3.344,8.455,8.455,0,0,0,6.72,3.344h2.533v7.5a11.321,11.321,0,0,1-.235,2.3h-5.947a4.383,4.383,0,0,0-4.124-2.917h-1.167a4.375,4.375,0,0,0,0,8.75h1.167a4.382,4.382,0,0,0,4.124-2.917h4.905a11.375,11.375,0,0,1-21.472-5.218Zm13.9,3.76a1.46,1.46,0,0,1-1.458,1.458h-1.167a1.458,1.458,0,1,1,0-2.917h1.167a1.46,1.46,0,0,1,1.458,1.458Zm-2.526,10.511a14.258,14.258,0,0,0,4.541-.738V205.8l-4.541,4.54L456,205.8v-3.278a14.258,14.258,0,0,0,4.54.738Zm-5.28,12.36-6.3-8.232h4.5l5.015,5.014Zm35.9,14.123H462v-13.82l2.936,2.936a1.458,1.458,0,0,0,1.031.427c.032,0,.064,0,.1,0a1.457,1.457,0,0,0,1.062-.568l8.671-11.327h.7a14.686,14.686,0,0,1,14.669,14.67Zm0,0" transform="translate(-427 -158)" fill="#eb1018"/>
  <path id="Path_4201" data-name="Path 4201" d="M669.208,486.5h-7a1.458,1.458,0,0,0,0,2.917h7a1.458,1.458,0,0,0,0-2.917Zm0,0" transform="translate(-615.3 -422.629)" fill="#eb1018"/>
</svg>
