<svg id="tips-for-success" xmlns="http://www.w3.org/2000/svg" width="59.73" height="74.664" viewBox="0 0 59.73 74.664">
  <path id="Path_4203" data-name="Path 4203" d="M249.244,23.466a1.244,1.244,0,0,0,1.244-1.244V17.244a1.244,1.244,0,1,0-2.489,0v4.978A1.244,1.244,0,0,0,249.244,23.466Z" transform="translate(-219.379 -16)" fill="#eb1018"/>
  <path id="Path_4204" data-name="Path 4204" d="M158.632,46.792a1.244,1.244,0,0,0,2.163-1.23l-.008-.014L158.3,41.238a1.244,1.244,0,0,0-2.164,1.23l.008.014Z" transform="translate(-141.666 -36.781)" fill="#eb1018"/>
  <path id="Path_4205" data-name="Path 4205" d="M89.238,110.3l4.309,2.489a1.244,1.244,0,0,0,1.259-2.147l-.014-.008-4.309-2.489a1.244,1.244,0,0,0-1.259,2.147Z" transform="translate(-84.781 -93.668)" fill="#eb1018"/>
  <path id="Path_4206" data-name="Path 4206" d="M71.466,201.244A1.244,1.244,0,0,0,70.222,200H65.244a1.244,1.244,0,1,0,0,2.489h4.978A1.244,1.244,0,0,0,71.466,201.244Z" transform="translate(-64 -171.381)" fill="#eb1018"/>
  <path id="Path_4207" data-name="Path 4207" d="M93.547,276.143l-4.309,2.489a1.244,1.244,0,1,0,1.23,2.164l.014-.008,4.309-2.489a1.244,1.244,0,1,0-1.23-2.164Z" transform="translate(-84.78 -235.535)" fill="#eb1018"/>
  <path id="Path_4208" data-name="Path 4208" d="M385.775,278.632l-4.309-2.489a1.244,1.244,0,1,0-1.259,2.147l.014.008,4.309,2.489a1.244,1.244,0,1,0,1.259-2.147Z" transform="translate(-330.502 -235.535)" fill="#eb1018"/>
  <path id="Path_4209" data-name="Path 4209" d="M406.222,200h-4.978a1.244,1.244,0,0,0,0,2.489h4.978a1.244,1.244,0,1,0,0-2.489Z" transform="translate(-347.736 -171.381)" fill="#eb1018"/>
  <path id="Path_4210" data-name="Path 4210" d="M380.891,112.954a1.245,1.245,0,0,0,.622-.167l4.309-2.489a1.244,1.244,0,0,0-1.23-2.164l-.014.008-4.309,2.489a1.244,1.244,0,0,0,.622,2.322Z" transform="translate(-330.549 -93.668)" fill="#eb1018"/>
  <path id="Path_4211" data-name="Path 4211" d="M324.618,47.248a1.244,1.244,0,0,0,1.7-.456h0l2.489-4.309a1.244,1.244,0,1,0-2.147-1.259l-.008.014-2.489,4.309a1.244,1.244,0,0,0,.454,1.7Z" transform="translate(-283.554 -36.781)" fill="#eb1018"/>
  <path id="Path_4212" data-name="Path 4212" d="M197.688,200.888a1.244,1.244,0,0,0,1.244-1.244V185.955h2.489a4.978,4.978,0,1,0-4.978-4.978v2.489h-2.489v-2.489a4.978,4.978,0,1,0-4.978,4.978h2.489v13.688a1.244,1.244,0,1,0,2.489,0V185.955h2.489v13.688A1.244,1.244,0,0,0,197.688,200.888Zm3.733-22.4a2.489,2.489,0,0,1,0,4.978h-2.489v-2.489A2.489,2.489,0,0,1,201.421,178.489Zm-14.933,2.489a2.489,2.489,0,0,1,4.978,0v2.489h-2.489A2.489,2.489,0,0,1,186.489,180.978Z" transform="translate(-165.334 -151.113)" fill="#eb1018"/>
  <path id="Path_4213" data-name="Path 4213" d="M148.939,80.025A19.91,19.91,0,0,0,135.351,115.3a3.709,3.709,0,0,1,1.421,2.846v2.918a3.733,3.733,0,0,0,2.489,3.5v1.473a3.709,3.709,0,0,0,.971,2.489,3.676,3.676,0,0,0,0,4.978,3.717,3.717,0,0,0,2.763,6.222,1.213,1.213,0,0,0,1.023-1.913,1.319,1.319,0,0,0-.139-.215,1.286,1.286,0,0,0-.346-.226c-.036-.019-.072-.034-.109-.049a1.32,1.32,0,0,0-.392-.078c-.012,0-.024-.007-.036-.007a1.244,1.244,0,1,1,0-2.489h4.978a1.244,1.244,0,1,0,0-2.489h-4.978a1.244,1.244,0,0,1,0-2.489h4.978a1.244,1.244,0,1,0,0-2.489h-4.978a1.244,1.244,0,0,1-1.244-1.244V124.8h6.222a1.244,1.244,0,1,0,0-2.489h-7.466a1.244,1.244,0,0,1-1.244-1.244v-2.918a6.186,6.186,0,0,0-2.333-4.772,17.421,17.421,0,0,1,11.893-30.861,17.622,17.622,0,0,1,16.573,17.291,17.319,17.319,0,0,1-6.465,13.642,6.168,6.168,0,0,0-2.246,4.844v2.774a1.244,1.244,0,0,1-1.244,1.244h-3.733a1.244,1.244,0,1,0,0,2.489h2.489v1.244a1.244,1.244,0,0,1-1.244,1.244h-1.244a1.244,1.244,0,1,0,0,2.489h1.244a1.244,1.244,0,0,1,0,2.489h-1.244a1.244,1.244,0,1,0,0,2.489h1.244a1.244,1.244,0,0,1,0,2.489h-6.222a1.244,1.244,0,0,0,0,2.489h4.765a3.733,3.733,0,0,1-6.31,1.236,1.245,1.245,0,1,0-1.859,1.655h0a6.208,6.208,0,0,0,10.765-3.087,3.7,3.7,0,0,0,1.624-6.025,3.676,3.676,0,0,0,0-4.978,3.71,3.71,0,0,0,.971-2.489V124.57a3.733,3.733,0,0,0,2.489-3.5v-2.774a3.741,3.741,0,0,1,1.32-2.908,19.792,19.792,0,0,0,7.39-15.6A20.142,20.142,0,0,0,148.939,80.025Z" transform="translate(-118.106 -70.047)" fill="#eb1018"/>
</svg>
