<svg id="zero-investment" xmlns="http://www.w3.org/2000/svg" width="65.607" height="58.944" viewBox="0 0 65.607 58.944">
  <g id="Group_3775" data-name="Group 3775">
    <path id="Path_3388" data-name="Path 3388" d="M61.763,36.251H57.736L61.9,32.087a1.281,1.281,0,0,0,0-1.812l-3.9-3.9a1.282,1.282,0,0,0-1.812,0l-9.876,9.876H38.57a1.281,1.281,0,1,0,0,2.563h5.18l-2.563,2.563H24.42l-2.563-2.563h5.18a1.281,1.281,0,1,0,0-2.563H19.295L9.419,26.376a1.282,1.282,0,0,0-1.812,0l-3.9,3.9a1.281,1.281,0,0,0,0,1.812l4.164,4.164H3.844A3.849,3.849,0,0,0,0,40.1V70.849a3.849,3.849,0,0,0,3.844,3.844H7.871L3.707,78.857a1.282,1.282,0,0,0,0,1.812l3.9,3.9a1.281,1.281,0,0,0,1.812,0l9.876-9.876H46.313l9.876,9.876a1.281,1.281,0,0,0,1.812,0l3.9-3.9a1.282,1.282,0,0,0,0-1.812l-4.164-4.164h4.027a3.849,3.849,0,0,0,3.844-3.844V40.1a3.849,3.849,0,0,0-3.844-3.844ZM32.8,44a11.454,11.454,0,0,1,4.735,1.021L32.8,49.76l-4.735-4.735A11.459,11.459,0,0,1,32.8,44ZM3.844,72.13a1.283,1.283,0,0,1-1.281-1.281V40.1a1.283,1.283,0,0,1,1.281-1.281h6.59L13,41.377H11.533a1.281,1.281,0,0,0-1.281,1.281A3.849,3.849,0,0,1,6.407,46.5a1.281,1.281,0,0,0-1.281,1.281V63.161a1.281,1.281,0,0,0,1.281,1.281,3.849,3.849,0,0,1,3.844,3.844,1.281,1.281,0,0,0,1.281,1.281H13L10.434,72.13ZM22.356,60.208a11.487,11.487,0,0,1,0-9.471l4.735,4.735ZM20.445,62.12l-1.89,1.89a16.329,16.329,0,0,1,0-17.074l1.89,1.89a14.045,14.045,0,0,0,0,13.294Zm-6.862-6.647A18.753,18.753,0,0,0,16.7,65.866L15.559,67H12.685a6.427,6.427,0,0,0-5-5V48.937a6.427,6.427,0,0,0,5-5h2.874L16.7,45.079A18.757,18.757,0,0,0,13.583,55.472ZM21.857,72.13l2.563-2.563H41.187L43.75,72.13ZM32.8,66.941a11.451,11.451,0,0,1-4.736-1.021L32.8,61.184l4.735,4.736A11.454,11.454,0,0,1,32.8,66.941Zm24.291,14.91L33.71,58.466a1.281,1.281,0,0,0-1.812,0L8.513,81.851,6.425,79.763,29.81,56.378a1.282,1.282,0,0,0,0-1.812L6.425,31.181l2.087-2.087L31.9,52.479a1.281,1.281,0,0,0,1.812,0L57.095,29.094l2.087,2.087L35.8,54.566a1.282,1.282,0,0,0,0,1.812L59.182,79.763ZM43.251,50.737a11.49,11.49,0,0,1,0,9.471l-4.735-4.735Zm1.912-1.912,1.89-1.89a16.324,16.324,0,0,1,0,17.073l-1.889-1.889a14.045,14.045,0,0,0,0-13.294Zm3.746,17.04a18.894,18.894,0,0,0,0-20.787l1.139-1.139h2.874a6.427,6.427,0,0,0,5,5V62.008a6.427,6.427,0,0,0-5,5H50.048Zm14.136,4.984a1.283,1.283,0,0,1-1.281,1.281h-6.59l-2.563-2.563h1.464a1.281,1.281,0,0,0,1.281-1.281A3.849,3.849,0,0,1,59.2,64.442a1.281,1.281,0,0,0,1.281-1.281V47.784A1.281,1.281,0,0,0,59.2,46.5a3.849,3.849,0,0,1-3.844-3.844,1.281,1.281,0,0,0-1.281-1.281H52.611l2.563-2.563h6.59A1.283,1.283,0,0,1,63.045,40.1Z" transform="translate(0 -26)" fill="#a3191e"/>
    <path id="Path_3389" data-name="Path 3389" d="M247.282,108.563a1.281,1.281,0,1,0,0-2.563h0a1.281,1.281,0,0,0,0,2.563Z" transform="translate(-214.478 -95.749)" fill="#a3191e"/>
  </g>
</svg>
